<svg xmlns="http://www.w3.org/2000/svg" width="44" height="54" viewBox="0 0 44 54">
  <metadata><?xpacket begin="﻿" id="W5M0MpCehiHzreSzNTczkc9d"?>
<x:xmpmeta xmlns:x="adobe:ns:meta/" x:xmptk="Adobe XMP Core 5.6-c140 79.160451, 2017/05/06-01:08:21        ">
   <rdf:RDF xmlns:rdf="http://www.w3.org/1999/02/22-rdf-syntax-ns#">
      <rdf:Description rdf:about=""/>
   </rdf:RDF>
</x:xmpmeta>
                                                                                                    
                                                                                                    
                                                                                                    
                                                                                                    
                                                                                                    
                                                                                                    
                                                                                                    
                                                                                                    
                                                                                                    
                                                                                                    
                                                                                                    
                                                                                                    
                                                                                                    
                                                                                                    
                                                                                                    
                                                                                                    
                                                                                                    
                                                                                                    
                                                                                                    
                                                                                                    
                           
<?xpacket end="w"?></metadata>
<defs>
    <style>
      .cls-1 {
        fill: #1b66d6;
        fill-rule: evenodd;
      }
    </style>
  </defs>
  <path id="Forma_1" data-name="Forma 1" class="cls-1" d="M1089,1213.16a2.164,2.164,0,0,0-2.16-2.16h-39.68a2.164,2.164,0,0,0-2.16,2.16v49.68a2.164,2.164,0,0,0,2.16,2.16h39.68a2.164,2.164,0,0,0,2.16-2.16v-49.68h0Zm-39.67,2.16h35.34v45.36h-35.34v-45.36Zm27.41,8.28h-19.48a2.16,2.16,0,0,0,0,4.32h19.48A2.16,2.16,0,0,0,1076.74,1223.6Zm0,11.52h-19.48a2.16,2.16,0,0,0,0,4.32h19.48A2.16,2.16,0,0,0,1076.74,1235.12Zm0,12.24h-19.48a2.16,2.16,0,1,0,0,4.32h19.48A2.16,2.16,0,1,0,1076.74,1247.36Z" transform="translate(-1045 -1211)"/>
</svg>
