<svg xmlns="http://www.w3.org/2000/svg" width="28" height="40" viewBox="0 0 28 40">
  <metadata><?xpacket begin="﻿" id="W5M0MpCehiHzreSzNTczkc9d"?>
<x:xmpmeta xmlns:x="adobe:ns:meta/" x:xmptk="Adobe XMP Core 5.6-c140 79.160451, 2017/05/06-01:08:21        ">
   <rdf:RDF xmlns:rdf="http://www.w3.org/1999/02/22-rdf-syntax-ns#">
      <rdf:Description rdf:about=""/>
   </rdf:RDF>
</x:xmpmeta>
                                                                                                    
                                                                                                    
                                                                                                    
                                                                                                    
                                                                                                    
                                                                                                    
                                                                                                    
                                                                                                    
                                                                                                    
                                                                                                    
                                                                                                    
                                                                                                    
                                                                                                    
                                                                                                    
                                                                                                    
                                                                                                    
                                                                                                    
                                                                                                    
                                                                                                    
                                                                                                    
                           
<?xpacket end="w"?></metadata>
<defs>
    <style>
      .cls-1 {
        fill: #1b66d6;
        fill-rule: evenodd;
      }
    </style>
  </defs>
  <path id="Shape_1_copy_3" data-name="Shape 1 copy 3" class="cls-1" d="M787,1219a13.9,13.9,0,0,0-14,13.77,1.356,1.356,0,0,0,2.711,0,11.291,11.291,0,0,1,22.578,0c0,4.01-1.584,5.53-3.785,7.64-2.4,2.31-5.378,5.17-5.378,11.35a4.65,4.65,0,0,1-9.3,0,1.356,1.356,0,0,0-2.711,0,7.361,7.361,0,0,0,14.72,0c0-5.06,2.318-7.28,4.568-9.45s4.6-4.41,4.6-9.54A13.9,13.9,0,0,0,787,1219Zm0.654,20.3a5.949,5.949,0,0,0-2.79-3.67,6.184,6.184,0,0,0-3.741-.81,1.338,1.338,0,1,0,.284,2.66,3.409,3.409,0,0,1,2.073.44,3.339,3.339,0,0,1,1.548,2.04,3.259,3.259,0,0,1-.367,2.52,3.362,3.362,0,0,1-2.07,1.52,3.415,3.415,0,0,1-2.559-.36,1.364,1.364,0,0,0-1.856.46,1.323,1.323,0,0,0,.474,1.83,6.09,6.09,0,0,0,3.1.84,6.167,6.167,0,0,0,5.243-2.93A5.863,5.863,0,0,0,787.654,1239.3Zm0.055-14.08A7.853,7.853,0,0,0,779.8,1233a1.356,1.356,0,0,0,2.711,0,5.2,5.2,0,0,1,10.39,0,1.356,1.356,0,0,0,2.711,0A7.853,7.853,0,0,0,787.709,1225.22Zm-5.221,7.24a1.356,1.356,0,0,0-2.709.09l0.12,3.55a1.348,1.348,0,0,0,1.355,1.29H781.3a1.345,1.345,0,0,0,1.309-1.38Z" transform="translate(-773 -1219)"/>
</svg>
