<svg xmlns="http://www.w3.org/2000/svg" width="11" height="18" viewBox="0 0 11 18">
  <metadata><?xpacket begin="﻿" id="W5M0MpCehiHzreSzNTczkc9d"?>
<x:xmpmeta xmlns:x="adobe:ns:meta/" x:xmptk="Adobe XMP Core 5.6-c140 79.160451, 2017/05/06-01:08:21        ">
   <rdf:RDF xmlns:rdf="http://www.w3.org/1999/02/22-rdf-syntax-ns#">
      <rdf:Description rdf:about=""/>
   </rdf:RDF>
</x:xmpmeta>
<?xpacket end="w"?></metadata>
<defs>
    <style>
      .cls-1 {
        fill: #11b89e;
        fill-rule: evenodd;
      }
    </style>
  </defs>
  <path id="Forma_1_copy" data-name="Forma 1 copy" class="cls-1" d="M1196.58,38h-8.16a1.4,1.4,0,0,0-1.41,1.384V54.618A1.4,1.4,0,0,0,1188.42,56h8.16a1.4,1.4,0,0,0,1.41-1.383V39.382A1.4,1.4,0,0,0,1196.58,38Zm-4.08,16.887a0.883,0.883,0,1,1,.9-0.884A0.89,0.89,0,0,1,1192.5,54.884Zm3.5-2.9h-7V40h7V51.984Z" transform="translate(-1187 -38)"/>
</svg>
