<svg xmlns="http://www.w3.org/2000/svg" width="36" height="43" viewBox="0 0 36 43">
  <metadata><?xpacket begin="﻿" id="W5M0MpCehiHzreSzNTczkc9d"?>
<x:xmpmeta xmlns:x="adobe:ns:meta/" x:xmptk="Adobe XMP Core 5.6-c140 79.160451, 2017/05/06-01:08:21        ">
   <rdf:RDF xmlns:rdf="http://www.w3.org/1999/02/22-rdf-syntax-ns#">
      <rdf:Description rdf:about=""/>
   </rdf:RDF>
</x:xmpmeta>
                                                                                                    
                                                                                                    
                                                                                                    
                                                                                                    
                                                                                                    
                                                                                                    
                                                                                                    
                                                                                                    
                                                                                                    
                                                                                                    
                                                                                                    
                                                                                                    
                                                                                                    
                                                                                                    
                                                                                                    
                                                                                                    
                                                                                                    
                                                                                                    
                                                                                                    
                                                                                                    
                           
<?xpacket end="w"?></metadata>
<defs>
    <style>
      .cls-1 {
        fill: #1b66d6;
        fill-rule: evenodd;
      }
    </style>
  </defs>
  <path id="Forma_1" data-name="Forma 1" class="cls-1" d="M398.989,1254.26c-0.823,2.57-3.337,4.48-7.474,5.68a1.373,1.373,0,0,1-.4.06,1.355,1.355,0,0,1-1.3-.92,1.291,1.291,0,0,1,.9-1.62c3.218-.94,5.125-2.27,5.667-3.96a1.375,1.375,0,0,1,1.7-.86A1.286,1.286,0,0,1,398.989,1254.26Zm12.212,3.2c-3.219-.94-5.125-2.27-5.668-3.96a1.375,1.375,0,0,0-1.7-.86,1.286,1.286,0,0,0-.9,1.62c0.823,2.57,3.338,4.48,7.474,5.68a1.383,1.383,0,0,0,.4.06,1.356,1.356,0,0,0,1.3-.92A1.292,1.292,0,0,0,411.2,1257.46Zm-18.85-4.49a1.329,1.329,0,0,0-1.36-1.3,5.162,5.162,0,0,1-5.269-5.03v-12.47a13.7,13.7,0,0,1,.088-1.56,1.318,1.318,0,0,0-1.206-1.43,1.344,1.344,0,0,0-1.5,1.15,16.447,16.447,0,0,0-.1,1.84v12.47a7.821,7.821,0,0,0,7.989,7.62A1.327,1.327,0,0,0,392.351,1252.97Zm8.65-35.96a18.451,18.451,0,0,0-6.669,1.23,1.28,1.28,0,0,0-.755,1.69,1.394,1.394,0,0,0,1.769.72A15.547,15.547,0,0,1,401,1219.6c8.424,0,15.279,6.54,15.279,14.57v12.47a5.163,5.163,0,0,1-5.27,5.03,1.3,1.3,0,1,0,0,2.59,7.821,7.821,0,0,0,7.99-7.62v-12.47C419,1224.71,410.925,1217.01,401,1217.01Zm11.434,20.4a14.7,14.7,0,0,0-1.012-5.55,0.07,0.07,0,0,0-.008-0.01,0.328,0.328,0,0,0-.033-0.07c-0.008-.02-0.018-0.04-0.028-0.06s-0.02-.03-0.031-0.05a0.633,0.633,0,0,1-.043-0.07,0.094,0.094,0,0,0-.01-0.01,0.037,0.037,0,0,0-.019-0.02,0.339,0.339,0,0,0-.054-0.07c-0.011-.01-0.022-0.03-0.033-0.04a0.232,0.232,0,0,0-.056-0.05,0.155,0.155,0,0,0-.042-0.04c-0.018-.02-0.037-0.03-0.055-0.05l-0.051-.03a0.188,0.188,0,0,0-.054-0.04l-0.057-.03-0.056-.03-0.059-.03-0.061-.03a0.13,0.13,0,0,1-.057-0.02c-0.023-.01-0.046-0.01-0.07-0.02s-0.034-.01-0.051-0.01a0.225,0.225,0,0,0-.078-0.02c-0.016,0-.032-0.01-0.048-0.01s-0.055-.01-0.083-0.01h-0.259a0.115,0.115,0,0,0-.057.01,0.17,0.17,0,0,0-.07.01c-0.023,0-.045.01-0.067,0.01s-0.04.01-.06,0.02a0.2,0.2,0,0,0-.074.02c-0.012,0-.023.01-0.035,0.01s-0.014.01-.02,0.01l-0.068.03-0.062.03-0.05.03a0.246,0.246,0,0,0-.072.04,0.014,0.014,0,0,0-.015.01,15.669,15.669,0,0,1-8.345,2.09,1.3,1.3,0,1,0,0,2.59h0a20.07,20.07,0,0,0,8.32-1.68,13.222,13.222,0,0,1,.359,3.14,10.732,10.732,0,0,1-5.485,9.39,5.451,5.451,0,0,1-6.46,0,10.731,10.731,0,0,1-5.484-9.39,13.138,13.138,0,0,1,.358-3.13c0.251,0.11.508,0.23,0.774,0.33l0.136,0.06a4.676,4.676,0,0,0,1.646.45,1.878,1.878,0,0,0,.684-0.13,2.543,2.543,0,0,0,1.293-1.67c0.063-.15.134-0.33,0.219-0.53,0.359-.85.755-1.9,0.9-2.39a1.29,1.29,0,0,0-.936-1.6,1.382,1.382,0,0,0-1.681.89c-0.106.36-.455,1.3-0.807,2.13l-0.2.48-0.065-.03-0.14-.05a10.851,10.851,0,0,1-1.844-.95,0.015,0.015,0,0,0-.016-0.01,0.242,0.242,0,0,0-.071-0.04l-0.051-.03-0.062-.03-0.067-.03c-0.007,0-.014-0.01-0.021-0.01s-0.023-.01-0.034-0.01a0.21,0.21,0,0,0-.075-0.02c-0.019-.01-0.039-0.01-0.059-0.02s-0.045-.01-0.068-0.01a0.17,0.17,0,0,0-.07-0.01,0.115,0.115,0,0,0-.057-0.01H391.9c-0.016,0-.032-0.01-0.048-0.01s-0.057.01-.086,0.01h-0.043c-0.029,0-.058.01-0.087,0.01s-0.029.01-.044,0.01a0.235,0.235,0,0,0-.081.02,0.084,0.084,0,0,0-.048.01c-0.025.01-.05,0.01-0.075,0.02a0.109,0.109,0,0,1-.051.02l-0.066.03-0.054.03-0.061.03-0.052.03c-0.02.01-.04,0.03-0.059,0.04l-0.047.03c-0.02.02-.039,0.03-0.058,0.05a0.149,0.149,0,0,0-.039.04,0.242,0.242,0,0,0-.059.05,0.158,0.158,0,0,1-.031.04,0.343,0.343,0,0,0-.056.07,0.036,0.036,0,0,0-.018.02s-0.006.01-.01,0.01a0.507,0.507,0,0,1-.044.07c-0.01.02-.021,0.03-0.03,0.05s-0.02.04-.029,0.06-0.022.04-.032,0.06a0.038,0.038,0,0,1-.008.02,14.7,14.7,0,0,0-1.013,5.55,13.306,13.306,0,0,0,6.835,11.63,9.365,9.365,0,0,0,4.6,1.41h0a9.362,9.362,0,0,0,4.6-1.41A13.307,13.307,0,0,0,412.435,1237.41Z" transform="translate(-383 -1217)"/>
</svg>
