<svg xmlns="http://www.w3.org/2000/svg" width="51" height="60" viewBox="0 0 51 60">
  <metadata><?xpacket begin="﻿" id="W5M0MpCehiHzreSzNTczkc9d"?>
<x:xmpmeta xmlns:x="adobe:ns:meta/" x:xmptk="Adobe XMP Core 5.6-c140 79.160451, 2017/05/06-01:08:21        ">
   <rdf:RDF xmlns:rdf="http://www.w3.org/1999/02/22-rdf-syntax-ns#">
      <rdf:Description rdf:about=""/>
   </rdf:RDF>
</x:xmpmeta>
                                                                                                    
                                                                                                    
                                                                                                    
                                                                                                    
                                                                                                    
                                                                                                    
                                                                                                    
                                                                                                    
                                                                                                    
                                                                                                    
                                                                                                    
                                                                                                    
                                                                                                    
                                                                                                    
                                                                                                    
                                                                                                    
                                                                                                    
                                                                                                    
                                                                                                    
                                                                                                    
                           
<?xpacket end="w"?></metadata>
<defs>
    <style>
      .cls-1 {
        fill: #1b66d6;
        fill-rule: evenodd;
      }
    </style>
  </defs>
  <path id="Forma_1" data-name="Forma 1" class="cls-1" d="M795.531,1239.33a25.472,25.472,0,0,0-10.33-6.21,14.07,14.07,0,0,0,1.908-1.56,13.316,13.316,0,0,0,4.031-9.57v-11.72A5.314,5.314,0,0,0,785.8,1205H769.2a5.314,5.314,0,0,0-5.338,5.27v11.58a13.641,13.641,0,0,0,5.981,11.26,25.383,25.383,0,0,0-10.372,6.22A24.889,24.889,0,0,0,752,1257.15V1265h51v-7.85A24.893,24.893,0,0,0,795.531,1239.33Zm-28.112-29.06a1.763,1.763,0,0,1,1.779-1.75h16.6a1.763,1.763,0,0,1,1.779,1.75v1.76h-5.05a5.361,5.361,0,0,0-10.062,0h-5.05v-1.76Zm11.86,3.52a1.779,1.779,0,1,1-1.779-1.76A1.772,1.772,0,0,1,779.279,1213.79Zm-11.86,8.06v-6.3h5.05a5.361,5.361,0,0,0,10.062,0h5.05v6.44a9.819,9.819,0,0,1-2.979,7.07A10.107,10.107,0,0,1,767.419,1221.85Zm8.3,39.63H755.558v-4.33a21.685,21.685,0,0,1,12.571-19.6l7.592,7.5v16.43Zm-3.914-25.27a22.238,22.238,0,0,1,11.378,0l-5.69,5.62Zm27.635,25.27H779.279v-16.44l7.585-7.5a21.7,21.7,0,0,1,12.578,19.61v4.33Zm-8.3-10.54v-3.52h-3.559v3.52h-3.558v3.51h3.558v3.52h3.559v-3.52H794.7v-3.51H791.14Z" transform="translate(-752 -1205)"/>
</svg>
