<svg xmlns="http://www.w3.org/2000/svg" width="40" height="40" viewBox="0 0 40 40">
  <metadata><?xpacket begin="﻿" id="W5M0MpCehiHzreSzNTczkc9d"?>
<x:xmpmeta xmlns:x="adobe:ns:meta/" x:xmptk="Adobe XMP Core 5.6-c140 79.160451, 2017/05/06-01:08:21        ">
   <rdf:RDF xmlns:rdf="http://www.w3.org/1999/02/22-rdf-syntax-ns#">
      <rdf:Description rdf:about=""/>
   </rdf:RDF>
</x:xmpmeta>
                                                                                                    
                                                                                                    
                                                                                                    
                                                                                                    
                                                                                                    
                                                                                                    
                                                                                                    
                                                                                                    
                                                                                                    
                                                                                                    
                                                                                                    
                                                                                                    
                                                                                                    
                                                                                                    
                                                                                                    
                                                                                                    
                                                                                                    
                                                                                                    
                                                                                                    
                                                                                                    
                           
<?xpacket end="w"?></metadata>
<defs>
    <style>
      .cls-1 {
        fill: #1b66d6;
        fill-rule: evenodd;
      }
    </style>
  </defs>
  <path id="Shape_2_copy_2" data-name="Shape 2 copy 2" class="cls-1" d="M1185.67,1239.3l-3.32-3.31,1.97-1.97,4.98,1.65,14.7-14.7-4.97-4.97-25.86,25.86H1164V1256h39.99v-14.14h-20.88Zm13.36-19.99,1.66,1.66-5.08,5.08-1.66-1.66Zm-6.74,6.74,1.66,1.66-1.66,1.65-1.65-1.65Zm-3.31,3.31,1.66,1.66-1.98,1.97-2.48-.82Zm-8.29,8.29,1.66,1.65-4.14,4.15a3.505,3.505,0,0,1-4,.68Zm20.96,16.01h-35.31v-3.29c0.25-.13.48-0.27,0.71-0.42a5.285,5.285,0,0,1,5.81,0,7.514,7.514,0,0,0,8.33,0,5.152,5.152,0,0,1,5.73,0,7.514,7.514,0,0,0,8.33,0,5.268,5.268,0,0,1,5.8,0c0.2,0.13.39,0.25,0.6,0.36v3.35Zm0-9.45v3.37a7.691,7.691,0,0,0-7.7.42,5.152,5.152,0,0,1-5.73,0,7.477,7.477,0,0,0-8.33,0,5.152,5.152,0,0,1-5.73,0,7.649,7.649,0,0,0-7.82-.35v-3.44h4.48l-0.07.07,0.83,0.82a5.854,5.854,0,0,0,8.29,0l0.89-.89h20.89Z" transform="translate(-1164 -1216)"/>
</svg>
