<svg xmlns="http://www.w3.org/2000/svg" width="55" height="60" viewBox="0 0 55 60">
  <metadata><?xpacket begin="﻿" id="W5M0MpCehiHzreSzNTczkc9d"?>
<x:xmpmeta xmlns:x="adobe:ns:meta/" x:xmptk="Adobe XMP Core 5.6-c140 79.160451, 2017/05/06-01:08:21        ">
   <rdf:RDF xmlns:rdf="http://www.w3.org/1999/02/22-rdf-syntax-ns#">
      <rdf:Description rdf:about=""/>
   </rdf:RDF>
</x:xmpmeta>
                                                                                                    
                                                                                                    
                                                                                                    
                                                                                                    
                                                                                                    
                                                                                                    
                                                                                                    
                                                                                                    
                                                                                                    
                                                                                                    
                                                                                                    
                                                                                                    
                                                                                                    
                                                                                                    
                                                                                                    
                                                                                                    
                                                                                                    
                                                                                                    
                                                                                                    
                                                                                                    
                           
<?xpacket end="w"?></metadata>
<defs>
    <style>
      .cls-1 {
        fill: #1b66d6;
        fill-rule: evenodd;
      }
    </style>
  </defs>
  <path id="Forma_1" data-name="Forma 1" class="cls-1" d="M509.818,1222.19a7.505,7.505,0,0,0-11.429,9.65,7.671,7.671,0,0,0,3.615,2.73V1250a8.778,8.778,0,0,1-3.673,7.07,14.77,14.77,0,0,1-17.66,0A8.775,8.775,0,0,1,477,1250v-5.15a17.934,17.934,0,0,0,10.706-5.01A13.362,13.362,0,0,0,492,1230v-20a2.532,2.532,0,0,0-2.5-2.5,3.408,3.408,0,0,0-.625.07,5.075,5.075,0,0,0-1.837-1.87,5,5,0,1,0-2.539,9.3,4.913,4.913,0,0,0,2.5-.71V1230a8.777,8.777,0,0,1-3.672,7.07,14.772,14.772,0,0,1-17.661,0A8.777,8.777,0,0,1,462,1230v-15.71a4.913,4.913,0,0,0,2.5.71,5,5,0,1,0-2.54-9.3,5.08,5.08,0,0,0-1.836,1.87,3.417,3.417,0,0,0-.625-0.07,2.531,2.531,0,0,0-2.5,2.5v20a13.358,13.358,0,0,0,4.3,9.84A17.934,17.934,0,0,0,472,1244.85V1250a13.5,13.5,0,0,0,5.138,10.61,19.612,19.612,0,0,0,24.732,0,13.5,13.5,0,0,0,5.138-10.61v-15.43a7.668,7.668,0,0,0,3.614-2.73A7.511,7.511,0,0,0,509.818,1222.19Zm-3.555,7.07a2.458,2.458,0,1,1,.742-1.76A2.42,2.42,0,0,1,506.263,1229.26Z" transform="translate(-457 -1205)"/>
</svg>
