<svg xmlns="http://www.w3.org/2000/svg" width="48" height="59" viewBox="0 0 48 59">
  <metadata><?xpacket begin="﻿" id="W5M0MpCehiHzreSzNTczkc9d"?>
<x:xmpmeta xmlns:x="adobe:ns:meta/" x:xmptk="Adobe XMP Core 5.6-c140 79.160451, 2017/05/06-01:08:21        ">
   <rdf:RDF xmlns:rdf="http://www.w3.org/1999/02/22-rdf-syntax-ns#">
      <rdf:Description rdf:about=""/>
   </rdf:RDF>
</x:xmpmeta>
                                                                                                    
                                                                                                    
                                                                                                    
                                                                                                    
                                                                                                    
                                                                                                    
                                                                                                    
                                                                                                    
                                                                                                    
                                                                                                    
                                                                                                    
                                                                                                    
                                                                                                    
                                                                                                    
                                                                                                    
                                                                                                    
                                                                                                    
                                                                                                    
                                                                                                    
                                                                                                    
                           
<?xpacket end="w"?></metadata>
<defs>
    <style>
      .cls-1 {
        fill: #1b66d6;
        fill-rule: evenodd;
      }
    </style>
  </defs>
  <path id="Forma_1" data-name="Forma 1" class="cls-1" d="M1380.69,1216.26a23.962,23.962,0,0,0-42.17,21.95,18.869,18.869,0,0,0,3.47,5.71l17.43,20.35a2.075,2.075,0,0,0,3.16,0l17.42-20.35a18.7,18.7,0,0,0,3.48-5.7A23.714,23.714,0,0,0,1380.69,1216.26Zm-1.1,20.52a14.793,14.793,0,0,1-2.73,4.46c-0.01,0-.01,0-0.01.01L1361,1259.76l-15.86-18.53a14.6,14.6,0,0,1-2.74-4.47A19.822,19.822,0,1,1,1379.59,1236.78ZM1361,1218.24a11.55,11.55,0,1,0,11.62,11.55A11.6,11.6,0,0,0,1361,1218.24Zm0,18.98a7.425,7.425,0,1,1,7.47-7.43A7.456,7.456,0,0,1,1361,1237.22Z" transform="translate(-1337 -1206)"/>
</svg>
