<svg xmlns="http://www.w3.org/2000/svg" viewBox="0 0 1725.43 1071.96"><defs><style>.cls-1,.cls-2,.cls-3{fill:#fff;}.cls-1{opacity:0.1;}.cls-2{opacity:0.3;}</style></defs><title>Ресурс 1</title><g id="Слой_2" data-name="Слой 2"><g id="Слой_1-2" data-name="Слой 1"><path class="cls-1" d="M1660.82,636.58a5.84,5.84,0,0,0-2.46-.56,5.9,5.9,0,0,0-5.84,5.38H1541.75a5.84,5.84,0,0,0-8.25-4.85l-55.39-95.94a5.72,5.72,0,0,0,0-9.28l55.36-95.88a6,6,0,0,0,2.35.49,5.92,5.92,0,0,0,5.86-5.37h110.72a5.82,5.82,0,0,0,8.38,4.77l55.32,95.84a5.71,5.71,0,0,0,0,9.6Zm-128.33,10.16-55.34,95.84a5.82,5.82,0,0,0-8.3,4.82H1358.14a5.81,5.81,0,0,0-8.28-4.82l-55.33-95.84a5.72,5.72,0,0,0,0-9.51l55.28-95.77a5.76,5.76,0,0,0,2.32.47,5.91,5.91,0,0,0,5.84-5.37h110.72a5.8,5.8,0,0,0,8.41,4.74l55.39,95.93a5.71,5.71,0,0,0,0,9.51Zm-239-10.19a6.06,6.06,0,0,0-2.41-.53,5.91,5.91,0,0,0-5.85,5.38H1174.5a5.84,5.84,0,0,0-8.3-4.83l-55.32-95.83a5.72,5.72,0,0,0,0-9.52l55.33-95.82a5.84,5.84,0,0,0,2.43.54,5.9,5.9,0,0,0,5.84-5.37h110.72a5.84,5.84,0,0,0,8.29,4.82l55.28,95.77a5.71,5.71,0,0,0,0,9.63ZM1107.47,530a5.91,5.91,0,0,0-5.84,5.39H990.89a5.84,5.84,0,0,0-8.27-4.85L927.3,434.73a5.73,5.73,0,0,0,0-9.51l55.31-95.82a5.84,5.84,0,0,0,8.28-4.84h110.71a5.83,5.83,0,0,0,8.31,4.82l55.33,95.83a5.71,5.71,0,0,0,0,9.52l-55.33,95.83A5.89,5.89,0,0,0,1107.47,530Zm612,0a6.08,6.08,0,0,0-2.38.51l-55.34-95.84a5.85,5.85,0,0,0,2.48-4.7,5.92,5.92,0,0,0-11.82-.58H1541.69a5.92,5.92,0,0,0-11.82.58,5.84,5.84,0,0,0,2.64,4.81l-55.36,95.88a5.77,5.77,0,0,0-8.46,4.73H1358a5.92,5.92,0,0,0-5.84-5.4,6.06,6.06,0,0,0-2.37.5l-55.28-95.76A5.86,5.86,0,0,0,1297,430a5.92,5.92,0,0,0-11.81-.58H1174.5a5.9,5.9,0,0,0-5.84-5.39,6,6,0,0,0-2.44.54l-55.33-95.83a5.72,5.72,0,0,0,0-9.49l55.32-95.84a6,6,0,0,0,2.44.54,5.9,5.9,0,0,0,5.84-5.37v-1.17a5.83,5.83,0,0,0-8.28-4.84l-55.32-95.83a5.72,5.72,0,0,0,0-9.52l-1-.66a6,6,0,0,0-2.43-.53,5.91,5.91,0,0,0-5.85,5.37H990.92a5.84,5.84,0,0,0-8.29-4.82L927.29,10.72A5.89,5.89,0,0,0,929.84,6,5.92,5.92,0,0,0,918,5.38H807.31A5.92,5.92,0,0,0,795.5,6a5.83,5.83,0,0,0,2.55,4.75L742.7,106.6a6,6,0,0,0-2.53-.6,5.91,5.91,0,0,0-5.84,5.38H623.61a5.87,5.87,0,0,0-8.22-4.88l-1,.66a5.73,5.73,0,0,0,0,9.6l-55.35,95.86a5.8,5.8,0,0,0-2.53-.62,5.91,5.91,0,0,0-5.85,5.39v1.17a5.92,5.92,0,0,0,5.85,5.37,5.86,5.86,0,0,0,2.53-.61l55.33,95.83a5.71,5.71,0,0,0,0,9.64l-55.33,95.84a5.7,5.7,0,0,0-2.54-.62,5.91,5.91,0,0,0-5.85,5.39H439.91a5.91,5.91,0,1,0-9.11,5.43l-55.34,95.83a5.89,5.89,0,0,0-2.6-.66,6,6,0,0,0,0,11.93,5.81,5.81,0,0,0,2.59-.65l55.42,96a5.71,5.71,0,0,0,.05,9.48l-55.33,95.82a5.76,5.76,0,0,0-2.42-.54,5.91,5.91,0,0,0-5.85,5.38H256.41a5.91,5.91,0,1,0-9.12,5.43L192,848.66a5.79,5.79,0,0,0-8.44,4.75H72.81a5.91,5.91,0,1,0-9.12,5.42L8.41,954.58A5.91,5.91,0,0,0,6,954,6,6,0,0,0,6,966a5.91,5.91,0,0,0,2.45-.56l55.33,95.85a5.84,5.84,0,0,0-2.55,4.74,6,6,0,0,0,6,6,5.91,5.91,0,0,0,5.85-5.38H183.72a5.92,5.92,0,0,0,11.81-.59,5.83,5.83,0,0,0-2.54-4.74l55.33-95.85a5.82,5.82,0,0,0,8.29-4.82H367.32a5.91,5.91,0,0,0,5.84,5.38,5.84,5.84,0,0,0,2.43-.55l55.34,95.84a5.84,5.84,0,0,0-2.54,4.74,6,6,0,0,0,6,6,5.9,5.9,0,0,0,5.84-5.38H550.91a5.92,5.92,0,1,0,9.26-5.35L615.5,965.4A6,6,0,0,0,618,966a5.91,5.91,0,0,0,5.84-5.38H734.47a5.92,5.92,0,0,0,11.81-.58,5.85,5.85,0,0,0-2.54-4.76l55.32-95.84a5.79,5.79,0,0,0,2.45.56,6,6,0,0,0,0-11.93,6.05,6.05,0,0,0-2.44.55l-55.33-95.83a5.85,5.85,0,0,0,2.54-4.76,5.92,5.92,0,0,0-11.81-.58H623.78a5.9,5.9,0,0,0-5.84-5.38,6.1,6.1,0,0,0-2.45.55l-55.32-95.84a5.72,5.72,0,0,0,0-9.53l55.3-95.82a5.76,5.76,0,0,0,2.45.56,5.91,5.91,0,0,0,5.84-5.39H734.39a5.93,5.93,0,0,0,5.86,5.39,5.79,5.79,0,0,0,2.45-.56L798,637.23a5.85,5.85,0,0,0-2.55,4.76,6,6,0,0,0,6,6,5.9,5.9,0,0,0,5.84-5.38H918a5.92,5.92,0,0,0,11.82-.59,5.86,5.86,0,0,0-2.55-4.75l55.33-95.84a5.83,5.83,0,0,0,8.29-4.83h110.74a5.84,5.84,0,0,0,8.28,4.84l55.32,95.83a5.86,5.86,0,0,0-2.55,4.75,6,6,0,0,0,6,6,5.91,5.91,0,0,0,5.84-5.38h110.76a5.91,5.91,0,0,0,5.85,5.38,6,6,0,0,0,2.44-.55l55.33,95.83a5.86,5.86,0,0,0-2.54,4.75,6,6,0,0,0,6,6,5.9,5.9,0,0,0,5.84-5.39h110.71a5.92,5.92,0,0,0,11.81-.59,5.85,5.85,0,0,0-2.53-4.75l55.33-95.83a6.06,6.06,0,0,0,2.45.55,5.9,5.9,0,0,0,5.84-5.38h110.77a5.89,5.89,0,0,0,5.84,5.38,6,6,0,0,0,6-6,5.88,5.88,0,0,0-2.54-4.76l55.3-95.79a5.9,5.9,0,0,0,2.38.5,6,6,0,0,0,0-11.93ZM985.08,117.94a5.91,5.91,0,0,0,5.84-5.39h110.71a5.92,5.92,0,0,0,5.85,5.39,5.81,5.81,0,0,0,2.43-.55l55.32,95.83a5.71,5.71,0,0,0,0,9.51l-55.33,95.85a5.81,5.81,0,0,0-2.46-.57,5.91,5.91,0,0,0-5.85,5.38H990.9a5.83,5.83,0,0,0-8.28-4.83l-55.33-95.83a5.72,5.72,0,0,0,0-9.52l27.69-48,27.64-47.88A6,6,0,0,0,985.08,117.94ZM743.64,319.28,799,223.39a6,6,0,0,0,2.44.54,5.9,5.9,0,0,0,5.84-5.37H918a5.91,5.91,0,0,0,5.85,5.37,6,6,0,0,0,2.44-.54l55.33,95.82a5.71,5.71,0,0,0,0,9.53l-55.31,95.83a5.84,5.84,0,0,0-2.46-.56A5.91,5.91,0,0,0,918,429.4H807.16a5.91,5.91,0,0,0-5.85-5.39,5.78,5.78,0,0,0-2.35.49l-55.33-95.84a5.72,5.72,0,0,0,0-9.38Zm0-212L799,11.38a5.83,5.83,0,0,0,8.29-4.83H918a5.92,5.92,0,0,0,5.85,5.38,5.76,5.76,0,0,0,2.45-.56l55.33,95.85a5.71,5.71,0,0,0,0,9.51l-27.68,48-27.64,47.87a6.06,6.06,0,0,0-2.45-.55,5.92,5.92,0,0,0-5.85,5.39H807.27a5.91,5.91,0,0,0-5.84-5.39,6,6,0,0,0-2.42.54l-55.34-95.87a5.72,5.72,0,0,0,0-9.41ZM560,222.67a5.73,5.73,0,0,0,0-9.38l55.34-95.86a5.87,5.87,0,0,0,8.22-4.88H734.33a5.91,5.91,0,0,0,5.84,5.38,5.82,5.82,0,0,0,2.5-.59L798,213.21a5.71,5.71,0,0,0,0,9.52l-55.36,95.89a5.7,5.7,0,0,0-2.54-.62,5.9,5.9,0,0,0-5.84,5.39H623.56a5.92,5.92,0,0,0-5.85-5.39,5.84,5.84,0,0,0-2.36.5ZM247.34,964.75,192,1060.59a5.86,5.86,0,0,0-2.44-.56,5.92,5.92,0,0,0-5.85,5.38H73a5.82,5.82,0,0,0-8.29-4.82L9.38,964.75a5.72,5.72,0,0,0,0-9.51l55.29-95.76a6,6,0,0,0,2.29.46,5.92,5.92,0,0,0,5.85-5.37H183.53A5.79,5.79,0,0,0,192,859.3l55.39,95.94a5.72,5.72,0,0,0,0,9.51ZM373.16,954a5.91,5.91,0,0,0-5.84,5.39H256.61a5.82,5.82,0,0,0-8.3-4.83l-55.38-95.94a5.72,5.72,0,0,0,0-9.32l55.34-95.84a6,6,0,0,0,2.29.47,5.9,5.9,0,0,0,5.84-5.37H367.32a5.91,5.91,0,0,0,5.85,5.39,5.84,5.84,0,0,0,2.43-.55l55.33,95.83a5.7,5.7,0,0,0,0,9.49l-55.34,95.83A6,6,0,0,0,373.16,954Zm186,106.56a5.84,5.84,0,0,0-2.43-.55,5.93,5.93,0,0,0-5.86,5.38H440.2a5.81,5.81,0,0,0-8.3-4.81l-55.34-95.84a5.72,5.72,0,0,0,0-9.52l55.32-95.84a5.76,5.76,0,0,0,2.45.56,5.9,5.9,0,0,0,5.84-5.39H550.91a5.93,5.93,0,0,0,5.86,5.39,5.81,5.81,0,0,0,2.4-.53l55.34,95.83a5.72,5.72,0,0,0,0,9.48ZM617.94,754a5.91,5.91,0,0,0,5.84-5.39H734.47a5.92,5.92,0,0,0,5.85,5.39,5.76,5.76,0,0,0,2.45-.57l55.32,95.84a5.71,5.71,0,0,0,0,9.51l-55.32,95.83a5.82,5.82,0,0,0-8.3,4.83H623.8A5.91,5.91,0,0,0,618,954a5.84,5.84,0,0,0-2.46.57l-55.32-95.83a5.72,5.72,0,0,0,0-9.53l55.32-95.83A5.76,5.76,0,0,0,617.94,754Zm-3.42-10.73a5.71,5.71,0,0,0,0,9.5l-55.33,95.81a5.87,5.87,0,0,0-8.26,4.86H440.2a5.9,5.9,0,0,0-5.84-5.38,6.05,6.05,0,0,0-2.44.55l-55.33-95.83a5.72,5.72,0,0,0,0-9.52l55.32-95.82a6.14,6.14,0,0,0,2.45.55,5.91,5.91,0,0,0,5.84-5.38H550.89a5.93,5.93,0,0,0,5.86,5.38,5.86,5.86,0,0,0,2.44-.56ZM559.14,636.55a5.86,5.86,0,0,0-8.25,4.85H440.18a5.81,5.81,0,0,0-8.34-4.78l-55.41-96a5.73,5.73,0,0,0,0-9.3l55.34-95.84a5.86,5.86,0,0,0,8.12-4.91H550.68a5.92,5.92,0,0,0,5.84,5.37,5.8,5.8,0,0,0,2.53-.62l55.38,95.92a5.71,5.71,0,0,0,0,9.5Zm183.55-106a5.84,5.84,0,0,0-8.3,4.83H623.71a5.9,5.9,0,0,0-5.84-5.38,5.82,5.82,0,0,0-2.44.55l-55.38-95.92a5.71,5.71,0,0,0,0-9.36l55.32-95.85a5.78,5.78,0,0,0,2.35.49,5.92,5.92,0,0,0,5.85-5.37H734.28a5.9,5.9,0,0,0,5.84,5.37,5.66,5.66,0,0,0,2.53-.62L798,425.15a5.71,5.71,0,0,0,0,9.64l-27.66,47.9Zm183.61,106a5.85,5.85,0,0,0-2.44-.55A5.92,5.92,0,0,0,918,641.4H807.29a5.83,5.83,0,0,0-8.29-4.83l-55.33-95.83a5.72,5.72,0,0,0,0-9.51l27.68-48L799,435.45a5.86,5.86,0,0,0,8.18-4.88H918a5.92,5.92,0,0,0,5.85,5.37,5.84,5.84,0,0,0,2.43-.54l55.32,95.82a5.72,5.72,0,0,0,0,9.51Z"/><path class="cls-2" d="M1501.59,616.51a4.63,4.63,0,0,0-2-.45,4.72,4.72,0,0,0-4.67,4.31h-88.67a4.73,4.73,0,0,0-4.68-4.31,4.81,4.81,0,0,0-1.93.42l-44.34-76.79a4.58,4.58,0,0,0,0-7.43l44.31-76.75a4.71,4.71,0,0,0,6.57-3.91h88.64a4.65,4.65,0,0,0,6.7,3.82l44.28,76.72a4.58,4.58,0,0,0,0,7.68Zm-102.73,8.13-44.29,76.72a4.67,4.67,0,0,0-6.64,3.86H1259.3a4.67,4.67,0,0,0-6.63-3.86l-44.29-76.72a4.58,4.58,0,0,0,0-7.61l44.25-76.66a4.79,4.79,0,0,0,1.86.37,4.72,4.72,0,0,0,4.67-4.29h88.63a4.65,4.65,0,0,0,6.73,3.79L1398.86,617a4.57,4.57,0,0,0,0,7.61Zm-191.29-8.15a4.62,4.62,0,0,0-1.93-.43,4.73,4.73,0,0,0-4.68,4.31H1112.3a4.67,4.67,0,0,0-6.64-3.87l-44.29-76.71a4.67,4.67,0,0,0,2.05-3.81,4.72,4.72,0,0,0-2-3.81l44.29-76.7a4.79,4.79,0,0,0,1.94.43,4.73,4.73,0,0,0,4.68-4.3h88.63a4.67,4.67,0,0,0,6.63,3.86l44.26,76.66a4.57,4.57,0,0,0,0,7.71ZM1058.64,531.2a4.74,4.74,0,0,0-4.68,4.31H965.32a4.74,4.74,0,0,0-4.68-4.31,4.64,4.64,0,0,0-1.94.44l-44.29-76.71a4.57,4.57,0,0,0,0-7.61l44.28-76.71a4.67,4.67,0,0,0,6.63-3.87H1054a4.74,4.74,0,0,0,4.69,4.31,4.63,4.63,0,0,0,2-.46l44.29,76.72a4.58,4.58,0,0,0,0,7.62l-44.29,76.71A4.68,4.68,0,0,0,1058.64,531.2Zm489.9,0a4.88,4.88,0,0,0-1.91.41l-44.29-76.72a4.69,4.69,0,0,0,2-3.77,4.78,4.78,0,0,0-4.77-4.77,4.73,4.73,0,0,0-4.68,4.31h-88.64a4.73,4.73,0,0,0-4.69-4.31,4.78,4.78,0,0,0-4.77,4.77,4.71,4.71,0,0,0,2.11,3.86l-44.31,76.75a4.68,4.68,0,0,0-2.1-.54,4.73,4.73,0,0,0-4.68,4.32h-88.63a4.68,4.68,0,0,0-6.56-3.92l-44.26-76.66a4.66,4.66,0,0,0,2-3.81,4.73,4.73,0,0,0-9.45-.46H1112.3a4.68,4.68,0,0,0-6.63-3.88l-44.29-76.71a4.57,4.57,0,0,0,0-7.6l44.29-76.72a4.67,4.67,0,0,0,6.63-3.87V281a4.67,4.67,0,0,0-6.63-3.87l-44.28-76.71a4.58,4.58,0,0,0,0-7.62l-.78-.53a4.67,4.67,0,0,0-1.94-.43,4.74,4.74,0,0,0-4.69,4.3H965.34a4.67,4.67,0,0,0-6.63-3.86l-44.3-76.72a4.7,4.7,0,0,0,2-3.8,4.74,4.74,0,0,0-9.46-.47H818.36a4.73,4.73,0,0,0-9.45.47,4.66,4.66,0,0,0,2,3.8l-44.31,76.75a4.65,4.65,0,0,0-6.7,3.83H671.31a4.72,4.72,0,0,0-4.67-4.31,4.63,4.63,0,0,0-1.9.41l-.78.52a4.58,4.58,0,0,0,0,7.68l-44.3,76.74a4.65,4.65,0,0,0-6.72,3.82v.93a4.64,4.64,0,0,0,6.71,3.82l44.29,76.71a4.71,4.71,0,0,0-2.11,3.86,4.67,4.67,0,0,0,2.12,3.85l-44.28,76.72a4.65,4.65,0,0,0-6.72,3.82H524.26A4.73,4.73,0,1,0,517,455l-44.3,76.71a4.71,4.71,0,0,0-2.08-.53,4.78,4.78,0,1,0,2.07,9L517,617.06a4.58,4.58,0,0,0,0,7.59l-44.29,76.7a4.87,4.87,0,0,0-1.94-.43,4.74,4.74,0,0,0-4.69,4.31H377.37a4.73,4.73,0,1,0-7.3,4.34l-44.29,76.71a4.81,4.81,0,0,0-2.08-.52,4.74,4.74,0,0,0-4.68,4.32H230.4a4.73,4.73,0,1,0-7.3,4.34l-44.25,76.65a4.59,4.59,0,0,0-2-.45,4.78,4.78,0,1,0,2,9.11l44.29,76.72a4.68,4.68,0,0,0-2,3.8,4.74,4.74,0,0,0,9.46.47h88.62a4.74,4.74,0,0,0,9.46-.47,4.66,4.66,0,0,0-2-3.8l44.29-76.72a4.67,4.67,0,0,0,6.64-3.86h88.62a4.69,4.69,0,0,0,6.63,3.87l44.29,76.72a4.66,4.66,0,0,0-2,3.79,4.74,4.74,0,0,0,9.46.47h88.62a4.74,4.74,0,0,0,9.46-.47,4.68,4.68,0,0,0-2.05-3.81l44.29-76.71a4.85,4.85,0,0,0,2,.44,4.73,4.73,0,0,0,4.68-4.3h88.59a4.74,4.74,0,0,0,9.45-.47,4.67,4.67,0,0,0-2-3.8l44.28-76.72a4.78,4.78,0,1,0,0-8.66L767.48,709.5a4.68,4.68,0,0,0,2-3.81,4.78,4.78,0,0,0-4.77-4.77,4.73,4.73,0,0,0-4.68,4.31H671.45a4.67,4.67,0,0,0-6.63-3.87l-44.29-76.72a4.57,4.57,0,0,0,0-7.63l44.27-76.69a4.67,4.67,0,0,0,6.63-3.87H760a4.67,4.67,0,0,0,6.64,3.87L810.93,617a4.7,4.7,0,0,0-2,3.81,4.78,4.78,0,0,0,4.78,4.77,4.73,4.73,0,0,0,4.68-4.3H907a4.74,4.74,0,0,0,9.46-.48,4.67,4.67,0,0,0-2-3.8l44.3-76.72a4.67,4.67,0,0,0,6.63-3.86H1054a4.69,4.69,0,0,0,6.63,3.87L1104.88,617a4.66,4.66,0,0,0-2,3.8,4.74,4.74,0,0,0,9.46.48H1201a4.67,4.67,0,0,0,6.64,3.86l44.29,76.72a4.67,4.67,0,0,0-2,3.8,4.78,4.78,0,0,0,4.77,4.78,4.73,4.73,0,0,0,4.68-4.31h88.63a4.73,4.73,0,0,0,9.45-.47,4.66,4.66,0,0,0-2-3.8l44.3-76.72a4.67,4.67,0,0,0,6.63-3.86H1495a4.71,4.71,0,0,0,4.67,4.3,4.78,4.78,0,0,0,4.78-4.77,4.69,4.69,0,0,0-2-3.81l44.27-76.68a4.77,4.77,0,1,0,1.9-9.15ZM960.66,201.34a4.73,4.73,0,0,0,4.68-4.31H1054a4.74,4.74,0,0,0,4.69,4.31,4.79,4.79,0,0,0,1.94-.43l44.28,76.7a4.59,4.59,0,0,0,0,7.62L1060.6,362a4.62,4.62,0,0,0-2-.45,4.73,4.73,0,0,0-4.69,4.3H965.33a4.69,4.69,0,0,0-6.63-3.87l-44.29-76.71a4.57,4.57,0,0,0,0-7.61l22.16-38.39,22.13-38.33A4.62,4.62,0,0,0,960.66,201.34ZM767.39,362.51l44.32-76.76a4.66,4.66,0,0,0,6.62-3.87H907a4.67,4.67,0,0,0,6.63,3.87l44.29,76.71a4.57,4.57,0,0,0,0,7.62L913.64,446.8a4.59,4.59,0,0,0-2-.45,4.73,4.73,0,0,0-4.68,4.31H818.24a4.7,4.7,0,0,0-6.56-3.92L767.39,370a4.58,4.58,0,0,0,0-7.51Zm0-169.72L811.73,116a4.67,4.67,0,0,0,6.63-3.86H907a4.67,4.67,0,0,0,6.64,3.86l44.29,76.72a4.58,4.58,0,0,0,0,7.61l-22.16,38.38-22.12,38.33A4.67,4.67,0,0,0,907,281H818.33a4.72,4.72,0,0,0-4.67-4.31,4.67,4.67,0,0,0-1.94.43l-44.3-76.74a4.58,4.58,0,0,0,0-7.54Zm-147,92.38a4.57,4.57,0,0,0,0-7.5l44.31-76.74a4.63,4.63,0,0,0,1.9.41,4.72,4.72,0,0,0,4.67-4.31h88.63a4.74,4.74,0,0,0,4.68,4.31,4.64,4.64,0,0,0,2-.48l44.3,76.74a4.58,4.58,0,0,0,0,7.63L766.61,362a4.48,4.48,0,0,0-2-.5,4.73,4.73,0,0,0-4.68,4.31H671.27a4.73,4.73,0,0,0-4.68-4.31,4.61,4.61,0,0,0-1.89.4Zm-250.3,594-44.29,76.72a4.58,4.58,0,0,0-1.95-.45,4.74,4.74,0,0,0-4.69,4.31H230.56a4.73,4.73,0,0,0-4.68-4.31,4.62,4.62,0,0,0-2,.45l-44.29-76.72a4.58,4.58,0,0,0,0-7.61l44.26-76.66a4.82,4.82,0,0,0,1.83.37,4.75,4.75,0,0,0,4.68-4.3H319a4.74,4.74,0,0,0,4.67,4.3,4.63,4.63,0,0,0,2.07-.52l44.34,76.81a4.58,4.58,0,0,0,0,7.61Zm100.72-8.59a4.74,4.74,0,0,0-4.68,4.31H377.53a4.74,4.74,0,0,0-4.68-4.31,4.62,4.62,0,0,0-2,.45l-44.34-76.8a4.58,4.58,0,0,0,0-7.46l44.29-76.72a4.71,4.71,0,0,0,6.52-3.92h88.78a4.67,4.67,0,0,0,6.63,3.87l44.29,76.71a4.57,4.57,0,0,0,0,7.6l-44.29,76.71A4.72,4.72,0,0,0,470.83,870.62Zm148.93,85.3a4.6,4.6,0,0,0-2-.44,4.74,4.74,0,0,0-4.69,4.31H524.5a4.66,4.66,0,0,0-6.65-3.86l-44.3-76.72a4.57,4.57,0,0,0,0-7.61l44.28-76.72A4.67,4.67,0,0,0,524.5,791h88.62a4.69,4.69,0,0,0,6.61,3.89L664,871.61a4.58,4.58,0,0,0,0,7.59Zm47-245.44a4.74,4.74,0,0,0,4.67-4.31h88.61A4.66,4.66,0,0,0,766.7,710L811,786.74a4.59,4.59,0,0,0,0,7.62L766.7,871.07a4.59,4.59,0,0,0-2-.45,4.73,4.73,0,0,0-4.68,4.31H671.47a4.65,4.65,0,0,0-6.65-3.85l-44.29-76.72a4.57,4.57,0,0,0,0-7.62L664.81,710A4.82,4.82,0,0,0,666.78,710.48ZM664,701.89a4.58,4.58,0,0,0,0,7.61l-44.29,76.7a4.61,4.61,0,0,0-1.92-.43,4.75,4.75,0,0,0-4.69,4.31H524.5a4.65,4.65,0,0,0-6.63-3.86L473.58,709.5a4.58,4.58,0,0,0,0-7.62l44.29-76.71a4.59,4.59,0,0,0,2,.45,4.73,4.73,0,0,0,4.67-4.31h88.63a4.73,4.73,0,0,0,4.68,4.31,4.62,4.62,0,0,0,2-.45ZM619.7,616.48a4.64,4.64,0,0,0-1.91-.41,4.73,4.73,0,0,0-4.68,4.3H524.48a4.73,4.73,0,0,0-4.67-4.3,4.63,4.63,0,0,0-2,.47L473.44,539.7a4.58,4.58,0,0,0,0-7.45l44.3-76.72a4.86,4.86,0,0,0,1.83.37,4.75,4.75,0,0,0,4.68-4.3h88.67a4.75,4.75,0,0,0,4.68,4.3,4.65,4.65,0,0,0,2-.5L664,532.19a4.57,4.57,0,0,0,0,7.6Zm146.94-84.83a4.67,4.67,0,0,0-6.64,3.86H671.39a4.67,4.67,0,0,0-6.63-3.86l-44.33-76.78a4.57,4.57,0,0,0,0-7.5l44.29-76.72a4.7,4.7,0,0,0,6.56-3.91H759.9a4.73,4.73,0,0,0,4.68,4.3,4.51,4.51,0,0,0,2-.5l44.29,76.72a4.57,4.57,0,0,0,0,7.72l-22.14,38.34Zm147,84.85a4.68,4.68,0,0,0-6.65,3.87H818.35a4.67,4.67,0,0,0-6.64-3.87l-44.29-76.71a4.58,4.58,0,0,0,0-7.61l22.16-38.39,22.11-38.28a4.69,4.69,0,0,0,6.55-3.91H907a4.73,4.73,0,0,0,4.68,4.3,4.83,4.83,0,0,0,1.94-.43l44.28,76.7a4.71,4.71,0,0,0-2,3.81,4.66,4.66,0,0,0,2,3.8Z"/><path class="cls-3" d="M1342.36,596.44a3.45,3.45,0,0,0-1.47-.34,3.54,3.54,0,0,0-3.51,3.24h-66.57a3.56,3.56,0,0,0-3.52-3.24,3.49,3.49,0,0,0-1.44.32l-33.29-57.66a3.43,3.43,0,0,0,0-5.57l33.27-57.63a3.49,3.49,0,0,0,1.41.3,3.57,3.57,0,0,0,3.52-3.23h66.55a3.56,3.56,0,0,0,3.51,3.23,3.69,3.69,0,0,0,1.52-.36l33.25,57.6a3.43,3.43,0,0,0,0,5.76Zm-77.12,6.1L1232,660.14a3.6,3.6,0,0,0-1.47-.33A3.54,3.54,0,0,0,1227,663h-66.54a3.54,3.54,0,0,0-3.51-3.23,3.6,3.6,0,0,0-1.47.33l-33.25-57.6a3.43,3.43,0,0,0,0-5.71l33.22-57.55a3.61,3.61,0,0,0,1.4.28,3.56,3.56,0,0,0,3.51-3.23h66.54a3.56,3.56,0,0,0,3.51,3.23,3.61,3.61,0,0,0,1.54-.38l33.29,57.65a3.43,3.43,0,0,0,0,5.71Zm-143.61-6.12a3.75,3.75,0,0,0-1.46-.32,3.55,3.55,0,0,0-3.51,3.24h-66.57a3.54,3.54,0,0,0-3.51-3.24,3.6,3.6,0,0,0-1.47.33l-33.25-57.59a3.51,3.51,0,0,0,1.54-2.86,3.56,3.56,0,0,0-1.53-2.86l33.25-57.59a3.51,3.51,0,0,0,5-2.9h66.54a3.55,3.55,0,0,0,3.51,3.23,3.6,3.6,0,0,0,1.47-.33l33.22,57.55a3.44,3.44,0,0,0,0,5.79Zm-111.82-64a3.55,3.55,0,0,0-3.51,3.24H939.75a3.56,3.56,0,0,0-3.51-3.24,3.51,3.51,0,0,0-1.46.33l-33.25-57.59a3.43,3.43,0,0,0,0-5.71l33.25-57.6a3.43,3.43,0,0,0,1.46.33,3.54,3.54,0,0,0,3.51-3.23h66.54a3.55,3.55,0,0,0,3.52,3.23,3.45,3.45,0,0,0,1.47-.34l33.26,57.6a3.43,3.43,0,0,0,0,5.72l-33.26,57.59A3.51,3.51,0,0,0,1009.81,532.39Zm367.81,0a3.61,3.61,0,0,0-1.44.31l-33.25-57.6a3.52,3.52,0,0,0,1.49-2.83,3.56,3.56,0,0,0-7.1-.34h-66.55a3.56,3.56,0,1,0-5.52,3.24L1232,532.79a3.48,3.48,0,0,0-1.57-.4,3.55,3.55,0,0,0-3.51,3.24h-66.54a3.55,3.55,0,0,0-3.51-3.24,3.51,3.51,0,0,0-1.42.3l-33.23-57.56a3.51,3.51,0,0,0,1.54-2.86,3.56,3.56,0,0,0-7.1-.34H1050.1a3.5,3.5,0,0,0-5-2.92l-33.25-57.59a3.43,3.43,0,0,0,0-5.7l33.25-57.6a3.52,3.52,0,0,0,5-2.91v-.7a3.51,3.51,0,0,0-5-2.91L1011.87,284a3.43,3.43,0,0,0,0-5.72l-.59-.4a3.5,3.5,0,0,0-1.45-.32,3.56,3.56,0,0,0-3.52,3.23H939.76a3.55,3.55,0,0,0-3.51-3.23,3.63,3.63,0,0,0-1.47.33l-33.25-57.59a3.55,3.55,0,0,0,1.52-2.86,3.56,3.56,0,0,0-7.1-.35H829.42a3.56,3.56,0,0,0-7.1.35,3.53,3.53,0,0,0,1.53,2.86l-33.26,57.62a3.48,3.48,0,0,0-5,2.87H719a3.51,3.51,0,0,0-4.94-2.93l-.59.4a3.43,3.43,0,0,0,0,5.76l-33.26,57.61a3.49,3.49,0,0,0-5,2.87v.7a3.49,3.49,0,0,0,5,2.86l33.25,57.6a3.42,3.42,0,0,0,0,5.79l-33.26,57.6a3.39,3.39,0,0,0-1.52-.38,3.56,3.56,0,0,0-3.52,3.25H608.61a3.55,3.55,0,0,0-7.09.34,3.51,3.51,0,0,0,1.62,2.92l-33.26,57.59a3.57,3.57,0,1,0-1.56,6.78,3.52,3.52,0,0,0,1.55-.39l33.31,57.69a3.43,3.43,0,0,0,0,5.69L570,660.14a3.59,3.59,0,0,0-1.46-.33A3.55,3.55,0,0,0,565,663H498.33a3.54,3.54,0,0,0-3.51-3.24,3.58,3.58,0,0,0-3.58,3.59,3.54,3.54,0,0,0,1.61,2.92L459.6,723.9a3.48,3.48,0,0,0-5.07,2.85H388a3.55,3.55,0,1,0-5.48,3.26l-33.22,57.54a3.58,3.58,0,1,0-1.47,6.84,3.63,3.63,0,0,0,1.47-.33l33.25,57.59a3.53,3.53,0,0,0-1.53,2.86,3.59,3.59,0,0,0,3.59,3.59,3.55,3.55,0,0,0,3.51-3.24h66.54a3.55,3.55,0,0,0,3.51,3.24,3.59,3.59,0,0,0,3.59-3.59,3.54,3.54,0,0,0-1.53-2.86l33.25-57.59a3.6,3.6,0,0,0,1.47.33,3.55,3.55,0,0,0,3.51-3.23H565a3.55,3.55,0,0,0,3.51,3.23,3.43,3.43,0,0,0,1.46-.33l33.26,57.6a3.51,3.51,0,0,0-1.53,2.85,3.59,3.59,0,0,0,3.59,3.59,3.55,3.55,0,0,0,3.51-3.24h66.54a3.55,3.55,0,0,0,3.51,3.24,3.59,3.59,0,0,0,3.59-3.59,3.51,3.51,0,0,0-1.54-2.86l33.25-57.6a3.5,3.5,0,0,0,5-2.89h66.51a3.56,3.56,0,1,0,5.57-3.21l33.25-57.6a3.45,3.45,0,0,0,1.47.34,3.59,3.59,0,1,0,0-7.17,3.55,3.55,0,0,0-1.46.33l-33.26-57.59a3.55,3.55,0,1,0-5.57-3.22H719.12a3.56,3.56,0,0,0-3.51-3.23,3.6,3.6,0,0,0-1.47.33l-33.25-57.59a3.52,3.52,0,0,0,1.52-2.86,3.56,3.56,0,0,0-1.55-2.88l33.24-57.58a3.42,3.42,0,0,0,1.47.34,3.56,3.56,0,0,0,3.51-3.24H785.6a3.5,3.5,0,0,0,5,2.9l33.25,57.6a3.5,3.5,0,0,0-1.53,2.86,3.58,3.58,0,0,0,3.59,3.58,3.55,3.55,0,0,0,3.51-3.23h66.53a3.56,3.56,0,0,0,7.1-.35,3.52,3.52,0,0,0-1.52-2.86l33.25-57.6a3.44,3.44,0,0,0,1.47.33,3.55,3.55,0,0,0,3.51-3.23h66.55a3.52,3.52,0,0,0,5,2.91l33.26,57.59a3.51,3.51,0,0,0-1.54,2.86,3.59,3.59,0,0,0,3.59,3.58,3.54,3.54,0,0,0,3.51-3.23h66.57a3.54,3.54,0,0,0,3.51,3.23,3.6,3.6,0,0,0,1.47-.33l33.25,57.6a3.5,3.5,0,0,0-1.52,2.85,3.55,3.55,0,0,0,7.09.35H1227a3.55,3.55,0,0,0,7.09-.35,3.5,3.5,0,0,0-1.52-2.85l33.26-57.6a3.59,3.59,0,0,0,1.46.33,3.55,3.55,0,0,0,3.52-3.23h66.57a3.53,3.53,0,0,0,3.51,3.23,3.58,3.58,0,0,0,3.58-3.58,3.52,3.52,0,0,0-1.52-2.86l33.24-57.57a3.52,3.52,0,0,0,1.43.3,3.59,3.59,0,0,0,0-7.17ZM936.25,284.74a3.55,3.55,0,0,0,3.51-3.24h66.54a3.55,3.55,0,0,0,3.52,3.24,3.43,3.43,0,0,0,1.46-.33l33.24,57.6a3.43,3.43,0,0,0,0,5.71l-33.25,57.6a3.5,3.5,0,0,0-5,2.9H939.75a3.54,3.54,0,0,0-3.51-3.24,3.59,3.59,0,0,0-1.46.33l-33.25-57.59a3.44,3.44,0,0,0,0-5.72l16.64-28.82,16.61-28.77A3.6,3.6,0,0,0,936.25,284.74Zm-145.1,121,33.27-57.63a3.43,3.43,0,0,0,1.46.33,3.55,3.55,0,0,0,3.52-3.23H896a3.55,3.55,0,0,0,3.52,3.23,3.43,3.43,0,0,0,1.46-.33l33.25,57.59a3.43,3.43,0,0,0,0,5.73L901,469a3.45,3.45,0,0,0-1.47-.34,3.56,3.56,0,0,0-3.52,3.25H829.33a3.56,3.56,0,0,0-3.52-3.25,3.49,3.49,0,0,0-1.41.3l-33.25-57.6a3.44,3.44,0,0,0,0-5.64Zm0-127.42,33.27-57.62a3.43,3.43,0,0,0,1.46.33,3.57,3.57,0,0,0,3.52-3.23H896a3.57,3.57,0,0,0,3.52,3.23,3.44,3.44,0,0,0,1.47-.33l33.26,57.6a3.42,3.42,0,0,0,0,5.71l-16.64,28.82-16.62,28.78a3.4,3.4,0,0,0-1.46-.34,3.55,3.55,0,0,0-3.52,3.24H829.4a3.5,3.5,0,0,0-5-2.91L791.17,284a3.43,3.43,0,0,0,0-5.66ZM680.8,347.68a3.52,3.52,0,0,0,1.48-2.82,3.55,3.55,0,0,0-1.46-2.82l33.26-57.61a3.43,3.43,0,0,0,1.43.31A3.56,3.56,0,0,0,719,281.5h66.54a3.55,3.55,0,0,0,3.51,3.24,3.45,3.45,0,0,0,1.5-.36L823.83,342a3.44,3.44,0,0,0,0,5.72l-33.26,57.63A3.46,3.46,0,0,0,789,405a3.57,3.57,0,0,0-3.52,3.25H719a3.52,3.52,0,0,0-4.93-3Zm-187.92,446-33.25,57.6a3.6,3.6,0,0,0-1.47-.33,3.55,3.55,0,0,0-3.51,3.23H388.11a3.55,3.55,0,0,0-3.51-3.23,3.6,3.6,0,0,0-1.47.33l-33.26-57.6a3.43,3.43,0,0,0,0-5.71L383.1,730.4a3.69,3.69,0,0,0,1.38.28,3.56,3.56,0,0,0,3.51-3.23h66.54a3.56,3.56,0,0,0,3.51,3.23,3.49,3.49,0,0,0,1.55-.39L492.88,788a3.44,3.44,0,0,0,0,5.71Zm75.62-6.44a3.55,3.55,0,0,0-3.51,3.24H498.45a3.55,3.55,0,0,0-3.51-3.24,3.6,3.6,0,0,0-1.47.33l-33.29-57.66a3.42,3.42,0,0,0,0-5.59l33.26-57.61a3.5,3.5,0,0,0,4.89-2.94H565A3.55,3.55,0,0,0,568.5,667a3.51,3.51,0,0,0,1.46-.33l33.26,57.59a3.42,3.42,0,0,0,0,5.7L570,787.55A3.59,3.59,0,0,0,568.5,787.22Zm111.81,64a3.44,3.44,0,0,0-1.47-.33,3.55,3.55,0,0,0-3.51,3.23H608.79a3.5,3.5,0,0,0-5-2.89l-33.26-57.6a3.44,3.44,0,0,0,0-5.72l33.25-57.6a3.45,3.45,0,0,0,1.47.34,3.55,3.55,0,0,0,3.51-3.24h66.54a3.55,3.55,0,0,0,3.51,3.24,3.5,3.5,0,0,0,1.45-.32L713.55,788a3.43,3.43,0,0,0,0,5.69ZM715.61,667a3.56,3.56,0,0,0,3.51-3.24h66.52a3.56,3.56,0,0,0,3.52,3.24,3.45,3.45,0,0,0,1.47-.34l33.25,57.6a3.43,3.43,0,0,0,0,5.71l-33.25,57.59a3.6,3.6,0,0,0-1.47-.33,3.56,3.56,0,0,0-3.52,3.24H719.13a3.5,3.5,0,0,0-5-2.9L680.89,730a3.43,3.43,0,0,0,0-5.72l33.25-57.59A3.45,3.45,0,0,0,715.61,667Zm-2.06-6.45a3.43,3.43,0,0,0,0,5.71l-33.25,57.58a3.66,3.66,0,0,0-1.45-.31,3.55,3.55,0,0,0-3.51,3.23H608.79a3.55,3.55,0,0,0-3.51-3.23,3.6,3.6,0,0,0-1.47.33l-33.25-57.59a3.43,3.43,0,0,0,0-5.72L603.8,603a3.6,3.6,0,0,0,1.47.33,3.56,3.56,0,0,0,3.51-3.24h66.54a3.55,3.55,0,0,0,3.51,3.24,3.45,3.45,0,0,0,1.47-.34Zm-33.28-64.12a3.61,3.61,0,0,0-1.44-.31,3.55,3.55,0,0,0-3.51,3.23H608.78a3.56,3.56,0,0,0-3.51-3.23,3.59,3.59,0,0,0-1.5.35l-33.31-57.69a3.44,3.44,0,0,0,0-5.59l33.26-57.6a3.64,3.64,0,0,0,1.37.27,3.55,3.55,0,0,0,3.51-3.22h66.58a3.55,3.55,0,0,0,3.51,3.22,3.41,3.41,0,0,0,1.52-.37l33.28,57.65a3.43,3.43,0,0,0,0,5.71Zm110.31-63.69a3.6,3.6,0,0,0-1.47-.33,3.54,3.54,0,0,0-3.51,3.23H719.08a3.55,3.55,0,0,0-3.51-3.23,3.6,3.6,0,0,0-1.47.33l-33.28-57.65a3.44,3.44,0,0,0,0-5.63l33.25-57.6a3.49,3.49,0,0,0,1.41.3,3.56,3.56,0,0,0,3.51-3.23h66.54a3.57,3.57,0,0,0,3.52,3.23,3.42,3.42,0,0,0,1.52-.38l33.25,57.6a3.45,3.45,0,0,0,0,5.8L807.2,504Zm110.35,63.7a3.6,3.6,0,0,0-1.47-.33,3.55,3.55,0,0,0-3.52,3.24H829.41a3.56,3.56,0,0,0-3.51-3.24,3.64,3.64,0,0,0-1.48.33l-33.25-57.59a3.43,3.43,0,0,0,0-5.71l16.64-28.83,16.6-28.74a3.47,3.47,0,0,0,1.4.29,3.55,3.55,0,0,0,3.51-3.22H896a3.56,3.56,0,0,0,3.52,3.23,3.5,3.5,0,0,0,1.45-.33l33.25,57.59a3.43,3.43,0,0,0,0,5.71Z"/></g></g></svg>