<svg xmlns="http://www.w3.org/2000/svg" style="display:none"><defs><style>.cls-1{fill:#1b66d6;fill-rule:evenodd}</style><style>.cls-1{fill:#1b66d6;fill-rule:evenodd}</style><style>.cls-1{fill:#1b66d6;fill-rule:evenodd}</style><style>.cls-1{fill:#1b66d6;fill-rule:evenodd}</style><style>.cls-1{fill:#1b66d6;fill-rule:evenodd}</style><style>.cls-1{fill:#1b66d6;fill-rule:evenodd}</style><style>.cls-1{fill-rule:evenodd}</style><style>.cls-1{fill:#2847bc;fill-rule:evenodd}</style><style>.cls-1{fill-rule:evenodd}</style><style>.cls-1{fill:#cdcdcd;fill-rule:evenodd}</style><style>.cls-1{fill:#fff;fill-rule:evenodd}</style><style>.cls-1{fill:#fff;fill-rule:evenodd}</style><style>.cls-1{fill:#fff;fill-rule:evenodd}</style><style>.cls-1{fill:#11b89e;fill-rule:evenodd}</style><style>.cls-1{fill:#1b66d6;fill-rule:evenodd}</style><style>.cls-1{fill:#11b89e;fill-rule:evenodd}</style><style>.cls-1{fill:#1b66d6;fill-rule:evenodd}</style><style>.cls-1{fill:#1b66d6;fill-rule:evenodd}</style><style>.cls-1{fill:#1b66d6;fill-rule:evenodd}</style><style>.cls-1{fill:#11b89e;fill-rule:evenodd}</style></defs><symbol id="custom-file-icon" viewBox="0 0 15 27"><path id="Forma_1" data-name="Forma 1" class="cls-1" d="M751 741.575a7.5 7.5 0 0 1-15 0V727.4a5.455 5.455 0 0 1 10.909 0v11.475a3.409 3.409 0 0 1-6.818 0V728.75h2.045v10.125a1.364 1.364 0 0 0 2.728 0V727.4a3.41 3.41 0 0 0-6.819 0v14.175a5.455 5.455 0 0 0 10.909 0V728.75H751v12.825z" transform="translate(-736 -722)"/></symbol><symbol id="icon-adv-01" viewBox="0 0 55 60"><path id="Forma_1" data-name="Forma 1" class="cls-1" d="M509.818 1222.19a7.505 7.505 0 0 0-11.429 9.65 7.671 7.671 0 0 0 3.615 2.73V1250a8.778 8.778 0 0 1-3.673 7.07 14.77 14.77 0 0 1-17.66 0A8.775 8.775 0 0 1 477 1250v-5.15a17.934 17.934 0 0 0 10.706-5.01A13.362 13.362 0 0 0 492 1230v-20a2.532 2.532 0 0 0-2.5-2.5 3.408 3.408 0 0 0-.625.07 5.075 5.075 0 0 0-1.837-1.87 5 5 0 1 0-2.539 9.3 4.913 4.913 0 0 0 2.5-.71V1230a8.777 8.777 0 0 1-3.672 7.07 14.772 14.772 0 0 1-17.661 0A8.777 8.777 0 0 1 462 1230v-15.71a4.913 4.913 0 0 0 2.5.71 5 5 0 1 0-2.54-9.3 5.08 5.08 0 0 0-1.836 1.87 3.417 3.417 0 0 0-.625-.07 2.531 2.531 0 0 0-2.5 2.5v20a13.358 13.358 0 0 0 4.3 9.84 17.934 17.934 0 0 0 10.701 5.01v5.15a13.5 13.5 0 0 0 5.138 10.61 19.612 19.612 0 0 0 24.732 0 13.5 13.5 0 0 0 5.138-10.61v-15.43a7.668 7.668 0 0 0 3.614-2.73 7.511 7.511 0 0 0-.804-9.65zm-3.555 7.07a2.458 2.458 0 1 1 .742-1.76 2.42 2.42 0 0 1-.742 1.76z" transform="translate(-457 -1205)"/></symbol><symbol id="icon-adv-02" viewBox="0 0 51 60"><path id="Forma_1" data-name="Forma 1" class="cls-1" d="M795.531 1239.33a25.472 25.472 0 0 0-10.33-6.21 14.07 14.07 0 0 0 1.908-1.56 13.316 13.316 0 0 0 4.031-9.57v-11.72a5.314 5.314 0 0 0-5.34-5.27h-16.6a5.314 5.314 0 0 0-5.338 5.27v11.58a13.641 13.641 0 0 0 5.981 11.26 25.383 25.383 0 0 0-10.372 6.22 24.889 24.889 0 0 0-7.471 17.82v7.85h51v-7.85a24.893 24.893 0 0 0-7.469-17.82zm-28.112-29.06a1.763 1.763 0 0 1 1.779-1.75h16.6a1.763 1.763 0 0 1 1.779 1.75v1.76h-5.05a5.361 5.361 0 0 0-10.062 0h-5.05v-1.76zm11.86 3.52a1.779 1.779 0 1 1-1.779-1.76 1.772 1.772 0 0 1 1.779 1.76zm-11.86 8.06v-6.3h5.05a5.361 5.361 0 0 0 10.062 0h5.05v6.44a9.819 9.819 0 0 1-2.979 7.07 10.107 10.107 0 0 1-17.183-7.21zm8.3 39.63h-20.161v-4.33a21.685 21.685 0 0 1 12.571-19.6l7.592 7.5v16.43zm-3.914-25.27a22.238 22.238 0 0 1 11.378 0l-5.69 5.62zm27.635 25.27h-20.161v-16.44l7.585-7.5a21.7 21.7 0 0 1 12.578 19.61v4.33zm-8.3-10.54v-3.52h-3.559v3.52h-3.558v3.51h3.558v3.52h3.559v-3.52h3.56v-3.51h-3.56z" transform="translate(-752 -1205)"/></symbol><symbol id="icon-adv-03" viewBox="0 0 44 54"><path id="Forma_1" data-name="Forma 1" class="cls-1" d="M1089 1213.16a2.164 2.164 0 0 0-2.16-2.16h-39.68a2.164 2.164 0 0 0-2.16 2.16v49.68a2.164 2.164 0 0 0 2.16 2.16h39.68a2.164 2.164 0 0 0 2.16-2.16v-49.68zm-39.67 2.16h35.34v45.36h-35.34v-45.36zm27.41 8.28h-19.48a2.16 2.16 0 0 0 0 4.32h19.48a2.16 2.16 0 0 0 0-4.32zm0 11.52h-19.48a2.16 2.16 0 0 0 0 4.32h19.48a2.16 2.16 0 0 0 0-4.32zm0 12.24h-19.48a2.16 2.16 0 1 0 0 4.32h19.48a2.16 2.16 0 1 0 0-4.32z" transform="translate(-1045 -1211)"/></symbol><symbol id="icon-adv-04" viewBox="0 0 48 59"><path id="Forma_1" data-name="Forma 1" class="cls-1" d="M1380.69 1216.26a23.962 23.962 0 0 0-42.17 21.95 18.869 18.869 0 0 0 3.47 5.71l17.43 20.35a2.075 2.075 0 0 0 3.16 0l17.42-20.35a18.7 18.7 0 0 0 3.48-5.7 23.714 23.714 0 0 0-2.79-21.96zm-1.1 20.52a14.793 14.793 0 0 1-2.73 4.46c-.01 0-.01 0-.01.01l-15.85 18.51-15.86-18.53a14.6 14.6 0 0 1-2.74-4.47 19.822 19.822 0 1 1 37.19.02zm-18.59-18.54a11.55 11.55 0 1 0 11.62 11.55 11.6 11.6 0 0 0-11.62-11.55zm0 18.98a7.425 7.425 0 1 1 7.47-7.43 7.456 7.456 0 0 1-7.47 7.43z" transform="translate(-1337 -1206)"/></symbol><symbol id="icon-answer" viewBox="0 0 18 18"><path id="Rounded_Rectangle_735_copy_2" data-name="Rounded Rectangle 735 copy 2" class="cls-1" d="M362 509a8.995 8.995 0 0 1 9 9v8.3a.7.7 0 0 1-.7.7H362a9 9 0 0 1 0-18zm0 16.594h7.594V518a7.594 7.594 0 1 0-7.594 7.594zM358.5 515h7a.5.5 0 0 1 0 1h-7a.5.5 0 0 1 0-1zm0 3h7a.5.5 0 0 1 0 1h-7a.5.5 0 0 1 0-1zm0 3h7a.5.5 0 0 1 0 1h-7a.5.5 0 0 1 0-1z" transform="translate(-353 -509)"/></symbol><symbol id="icon-arrow-bottom" viewBox="0 0 14.938 8"><path id="Forma_1" data-name="Forma 1" class="cls-1" d="M506.742 1031.71l-6.436-6.04a.939.939 0 0 1 0-1.39 1.106 1.106 0 0 1 1.482 0l5.695 5.35 5.695-5.35a1.107 1.107 0 0 1 1.483 0 .941.941 0 0 1 0 1.39l-6.437 6.04a1.092 1.092 0 0 1-1.482 0z" transform="translate(-500.031 -1024)"/></symbol><symbol id="icon-arrow-left" viewBox="0 0 8 15"><path id="Forma_1" data-name="Forma 1" class="cls-1" d="M429.288 416.228l6.038 6.46a.938.938 0 0 0 1.39 0 1.1 1.1 0 0 0 0-1.487l-5.342-5.716 5.342-5.716a1.1 1.1 0 0 0 0-1.488.938.938 0 0 0-1.39 0l-6.038 6.46a1.1 1.1 0 0 0 0 1.487z" transform="translate(-429 -408)"/></symbol><symbol id="icon-arrow-right" viewBox="0 0 8 15"><path id="Forma_1" data-name="Forma 1" class="cls-1" d="M1499.71 416.228l-6.04 6.46a.938.938 0 0 1-1.39 0 1.112 1.112 0 0 1 0-1.487l5.35-5.716-5.35-5.716a1.114 1.114 0 0 1 0-1.488.938.938 0 0 1 1.39 0l6.04 6.46a1.1 1.1 0 0 1 0 1.487z" transform="translate(-1492 -408)"/></symbol><symbol id="icon-date" viewBox="0 0 13 13"><path id="Forma_1" data-name="Forma 1" class="cls-1" d="M364.7 332.133a1 1 0 0 0-.7-.276h-1v-.7a1.08 1.08 0 0 0-.368-.82 1.253 1.253 0 0 0-.882-.337h-.5a1.251 1.251 0 0 0-.882.341 1.08 1.08 0 0 0-.368.82v.7h-3v-.7a1.079 1.079 0 0 0-.367-.82 1.253 1.253 0 0 0-.883-.341h-.5a1.253 1.253 0 0 0-.883.341 1.079 1.079 0 0 0-.367.82v.7h-1a1 1 0 0 0-.7.276.863.863 0 0 0-.3.653v9.285a.863.863 0 0 0 .3.653 1 1 0 0 0 .7.276h11a1 1 0 0 0 .7-.276.86.86 0 0 0 .3-.653v-9.285a.863.863 0 0 0-.3-.657zm-3.7-.972a.217.217 0 0 1 .071-.167.248.248 0 0 1 .179-.065h.5a.252.252 0 0 1 .18.065.216.216 0 0 1 .07.167v2.089a.218.218 0 0 1-.07.167.257.257 0 0 1-.18.065h-.5a.252.252 0 0 1-.179-.065.218.218 0 0 1-.071-.167v-2.089zm-6 0a.216.216 0 0 1 .07-.167.252.252 0 0 1 .18-.065h.5a.252.252 0 0 1 .18.065.22.22 0 0 1 .07.167v2.089a.221.221 0 0 1-.07.167.257.257 0 0 1-.18.065h-.5a.257.257 0 0 1-.18-.065.218.218 0 0 1-.07-.167v-2.089zm9 10.91h-11v-7.428h11v7.428z" transform="translate(-352 -330)"/></symbol><symbol id="icon-email" viewBox="0 0 23 17"><path id="Forma_1" data-name="Forma 1" class="cls-1" d="M1542.65 4947.32l-8.13 7.22a1.629 1.629 0 0 0 1.13.46h19.7a1.667 1.667 0 0 0 1.13-.46l-8.13-7.22-2.85 2.58zm12.7-9.32h-19.7a1.667 1.667 0 0 0-1.13.46l10.98 9.74 10.98-9.74a1.6 1.6 0 0 0-1.13-.46zm-21.35 15.62l7.94-6.99-7.94-7.14v14.13zm23 0v-14.13l-7.94 7.14z" transform="translate(-1534 -4938)"/></symbol><symbol id="icon-map" viewBox="0 0 18 25"><path class="cls-1" d="M9 0a9.037 9.037 0 0 0-9 9.05c0 6.2 8.05 15.29 8.4 15.68a.8.8 0 0 0 1.2 0c.35-.39 8.4-9.48 8.4-15.68A9.037 9.037 0 0 0 9 0zm0 13.61a4.555 4.555 0 1 1 4.53-4.56A4.545 4.545 0 0 1 9 13.61z"/></symbol><symbol id="icon-more" viewBox="0 0 45 45"><path id="Forma_1" data-name="Forma 1" class="cls-1" d="M836.424 439.781l-10.812-10.813a18.937 18.937 0 1 0-2.653 2.653l10.813 10.8a1.872 1.872 0 0 0 2.652-2.64zm-25.47-7.646a15.186 15.186 0 1 1 15.19-15.181 15.2 15.2 0 0 1-15.19 15.181z" transform="translate(-792 -398)"/></symbol><symbol id="icon-phone" viewBox="0 0 11 18"><path id="Forma_1_copy" data-name="Forma 1 copy" class="cls-1" d="M1196.58 38h-8.16a1.4 1.4 0 0 0-1.41 1.384v15.234a1.4 1.4 0 0 0 1.41 1.382h8.16a1.4 1.4 0 0 0 1.41-1.383V39.382a1.4 1.4 0 0 0-1.41-1.382zm-4.08 16.887a.883.883 0 1 1 .9-.884.89.89 0 0 1-.9.881zm3.5-2.9h-7V40h7v11.984z" transform="translate(-1187 -38)"/></symbol><symbol id="icon-question" viewBox="0 0 18 18"><path id="Forma_1" data-name="Forma 1" class="cls-1" d="M362.159 408.6a.986.986 0 0 0 0 1.971.986.986 0 0 0 0-1.971zm.164-7.462c-1.7 0-2.479 1.024-2.479 1.715a.727.727 0 0 0 .755.73c.679 0 .4-.986 1.686-.986a.956.956 0 0 1 1.132.87 2.2 2.2 0 0 1-1.119 1.447 2.359 2.359 0 0 0-.843 1.946c0 .665.176.857.692.857.616 0 .742-.282.742-.525a1.621 1.621 0 0 1 .7-1.6 3.281 3.281 0 0 0 1.411-2.344c0-1.203-1.067-2.112-2.677-2.112zM362 396a8.995 8.995 0 0 1 9 9v8.3a.7.7 0 0 1-.7.7H362a9 9 0 0 1 0-18zm0 16.594h7.594V405a7.594 7.594 0 1 0-7.594 7.594z" transform="translate(-353 -396)"/></symbol><symbol id="icon-search" viewBox="0 0 17.03 18"><path id="Forma_1" data-name="Forma 1" class="cls-1" d="M1482.76 128.4l-4.2-4.456a7.331 7.331 0 0 0 1.67-4.672 7.117 7.117 0 1 0-7.11 7.267 6.926 6.926 0 0 0 4.07-1.314l4.23 4.489a.928.928 0 0 0 .67.29.9.9 0 0 0 .64-.264.957.957 0 0 0 .03-1.34zm-9.64-14.5a5.373 5.373 0 1 1-5.26 5.372 5.323 5.323 0 0 1 5.26-5.372z" transform="translate(-1466 -112)"/></symbol><symbol id="icon-service-01" viewBox="0 0 36 43"><path id="Forma_1" data-name="Forma 1" class="cls-1" d="M398.989 1254.26c-.823 2.57-3.337 4.48-7.474 5.68a1.373 1.373 0 0 1-.4.06 1.355 1.355 0 0 1-1.3-.92 1.291 1.291 0 0 1 .9-1.62c3.218-.94 5.125-2.27 5.667-3.96a1.375 1.375 0 0 1 1.7-.86 1.286 1.286 0 0 1 .907 1.62zm12.212 3.2c-3.219-.94-5.125-2.27-5.668-3.96a1.375 1.375 0 0 0-1.7-.86 1.286 1.286 0 0 0-.9 1.62c.823 2.57 3.338 4.48 7.474 5.68a1.383 1.383 0 0 0 .4.06 1.356 1.356 0 0 0 1.3-.92 1.292 1.292 0 0 0-.907-1.62zm-18.85-4.49a1.329 1.329 0 0 0-1.36-1.3 5.162 5.162 0 0 1-5.269-5.03v-12.47a13.7 13.7 0 0 1 .088-1.56 1.318 1.318 0 0 0-1.206-1.43 1.344 1.344 0 0 0-1.5 1.15 16.447 16.447 0 0 0-.1 1.84v12.47a7.821 7.821 0 0 0 7.989 7.62 1.327 1.327 0 0 0 1.358-1.29zm8.65-35.96a18.451 18.451 0 0 0-6.669 1.23 1.28 1.28 0 0 0-.755 1.69 1.394 1.394 0 0 0 1.769.72 15.547 15.547 0 0 1 5.654-1.05c8.424 0 15.279 6.54 15.279 14.57v12.47a5.163 5.163 0 0 1-5.27 5.03 1.3 1.3 0 1 0 0 2.59 7.821 7.821 0 0 0 7.99-7.62v-12.47c.001-9.46-8.074-17.16-17.999-17.16zm11.434 20.4a14.7 14.7 0 0 0-1.012-5.55.07.07 0 0 0-.008-.01.328.328 0 0 0-.033-.07c-.008-.02-.018-.04-.028-.06s-.02-.03-.031-.05a.633.633 0 0 1-.043-.07.094.094 0 0 0-.01-.01.037.037 0 0 0-.019-.02.339.339 0 0 0-.054-.07c-.011-.01-.022-.03-.033-.04a.232.232 0 0 0-.056-.05.155.155 0 0 0-.042-.04c-.018-.02-.037-.03-.055-.05l-.051-.03a.188.188 0 0 0-.054-.04l-.057-.03-.056-.03-.059-.03-.061-.03a.13.13 0 0 1-.057-.02c-.023-.01-.046-.01-.07-.02s-.034-.01-.051-.01a.225.225 0 0 0-.078-.02c-.016 0-.032-.01-.048-.01s-.055-.01-.083-.01h-.259a.115.115 0 0 0-.057.01.17.17 0 0 0-.07.01c-.023 0-.045.01-.067.01s-.04.01-.06.02a.2.2 0 0 0-.074.02c-.012 0-.023.01-.035.01s-.014.01-.02.01l-.068.03-.062.03-.05.03a.246.246 0 0 0-.072.04.014.014 0 0 0-.015.01 15.669 15.669 0 0 1-8.345 2.09 1.3 1.3 0 1 0 0 2.59 20.07 20.07 0 0 0 8.32-1.68 13.222 13.222 0 0 1 .359 3.14 10.732 10.732 0 0 1-5.485 9.39 5.451 5.451 0 0 1-6.46 0 10.731 10.731 0 0 1-5.484-9.39 13.138 13.138 0 0 1 .358-3.13c.251.11.508.23.774.33l.136.06a4.676 4.676 0 0 0 1.646.45 1.878 1.878 0 0 0 .684-.13 2.543 2.543 0 0 0 1.293-1.67c.063-.15.134-.33.219-.53.359-.85.755-1.9.9-2.39a1.29 1.29 0 0 0-.936-1.6 1.382 1.382 0 0 0-1.681.89c-.106.36-.455 1.3-.807 2.13l-.2.48-.065-.03-.14-.05a10.851 10.851 0 0 1-1.844-.95.015.015 0 0 0-.016-.01.242.242 0 0 0-.071-.04l-.051-.03-.062-.03-.067-.03c-.007 0-.014-.01-.021-.01s-.023-.01-.034-.01a.21.21 0 0 0-.075-.02c-.019-.01-.039-.01-.059-.02s-.045-.01-.068-.01a.17.17 0 0 0-.07-.01.115.115 0 0 0-.057-.01h-.068c-.016 0-.032-.01-.048-.01s-.057.01-.086.01h-.043c-.029 0-.058.01-.087.01s-.029.01-.044.01a.235.235 0 0 0-.081.02.084.084 0 0 0-.048.01c-.025.01-.05.01-.075.02a.109.109 0 0 1-.051.02l-.066.03-.054.03-.061.03-.052.03c-.02.01-.04.03-.059.04l-.047.03c-.02.02-.039.03-.058.05a.149.149 0 0 0-.039.04.242.242 0 0 0-.059.05.158.158 0 0 1-.031.04.343.343 0 0 0-.056.07.036.036 0 0 0-.018.02s-.006.01-.01.01a.507.507 0 0 1-.044.07c-.01.02-.021.03-.03.05l-.029.06c-.009.02-.022.04-.032.06a.038.038 0 0 1-.008.02 14.7 14.7 0 0 0-1.013 5.55 13.306 13.306 0 0 0 6.835 11.63 9.365 9.365 0 0 0 4.6 1.41 9.362 9.362 0 0 0 4.6-1.41 13.307 13.307 0 0 0 6.829-11.63z" transform="translate(-383 -1217)"/></symbol><symbol id="icon-service-02" viewBox="0 0 28 40"><path id="Shape_1_copy_3" data-name="Shape 1 copy 3" class="cls-1" d="M787 1219a13.9 13.9 0 0 0-14 13.77 1.356 1.356 0 0 0 2.711 0 11.291 11.291 0 0 1 22.578 0c0 4.01-1.584 5.53-3.785 7.64-2.4 2.31-5.378 5.17-5.378 11.35a4.65 4.65 0 0 1-9.3 0 1.356 1.356 0 0 0-2.711 0 7.361 7.361 0 0 0 14.72 0c0-5.06 2.318-7.28 4.568-9.45s4.6-4.41 4.6-9.54A13.9 13.9 0 0 0 787 1219zm.654 20.3a5.949 5.949 0 0 0-2.79-3.67 6.184 6.184 0 0 0-3.741-.81 1.338 1.338 0 1 0 .284 2.66 3.409 3.409 0 0 1 2.073.44 3.339 3.339 0 0 1 1.548 2.04 3.259 3.259 0 0 1-.367 2.52 3.362 3.362 0 0 1-2.07 1.52 3.415 3.415 0 0 1-2.559-.36 1.364 1.364 0 0 0-1.856.46 1.323 1.323 0 0 0 .474 1.83 6.09 6.09 0 0 0 3.1.84 6.167 6.167 0 0 0 5.243-2.93 5.863 5.863 0 0 0 .661-4.54zm.055-14.08a7.853 7.853 0 0 0-7.909 7.78 1.356 1.356 0 0 0 2.711 0 5.2 5.2 0 0 1 10.39 0 1.356 1.356 0 0 0 2.711 0 7.853 7.853 0 0 0-7.903-7.78zm-5.221 7.24a1.356 1.356 0 0 0-2.709.09l.12 3.55a1.348 1.348 0 0 0 1.355 1.29h.046a1.345 1.345 0 0 0 1.309-1.38z" transform="translate(-773 -1219)"/></symbol><symbol id="icon-service-03" viewBox="0 0 40 40"><path id="Shape_2_copy_2" data-name="Shape 2 copy 2" class="cls-1" d="M1185.67 1239.3l-3.32-3.31 1.97-1.97 4.98 1.65 14.7-14.7-4.97-4.97-25.86 25.86H1164V1256h39.99v-14.14h-20.88zm13.36-19.99l1.66 1.66-5.08 5.08-1.66-1.66zm-6.74 6.74l1.66 1.66-1.66 1.65-1.65-1.65zm-3.31 3.31l1.66 1.66-1.98 1.97-2.48-.82zm-8.29 8.29l1.66 1.65-4.14 4.15a3.505 3.505 0 0 1-4 .68zm20.96 16.01h-35.31v-3.29c.25-.13.48-.27.71-.42a5.285 5.285 0 0 1 5.81 0 7.514 7.514 0 0 0 8.33 0 5.152 5.152 0 0 1 5.73 0 7.514 7.514 0 0 0 8.33 0 5.268 5.268 0 0 1 5.8 0c.2.13.39.25.6.36v3.35zm0-9.45v3.37a7.691 7.691 0 0 0-7.7.42 5.152 5.152 0 0 1-5.73 0 7.477 7.477 0 0 0-8.33 0 5.152 5.152 0 0 1-5.73 0 7.649 7.649 0 0 0-7.82-.35v-3.44h4.48l-.07.07.83.82a5.854 5.854 0 0 0 8.29 0l.89-.89h20.89z" transform="translate(-1164 -1216)"/></symbol><symbol id="icon-sign-up" viewBox="0 0 20 20"><path id="Forma_1_copy_4" data-name="Forma 1 copy 4" class="cls-1" d="M1630.07 49.929a9.921 9.921 0 0 0-3.8-2.384 5.78 5.78 0 1 0-6.54 0A10.018 10.018 0 0 0 1613 57h1.56a8.44 8.44 0 0 1 16.88 0h1.56a9.93 9.93 0 0 0-2.93-7.071zM1623 47a4.219 4.219 0 1 1 4.22-4.219A4.222 4.222 0 0 1 1623 47z" transform="translate(-1613 -37)"/></symbol><symbol id="temp-icon-left-arrow" viewBox="0 0 31.494 31.494"><path d="M10.273 5.01a1.117 1.117 0 0 1 1.587 1.57l-8.047 8.047h26.554c.62 0 1.127.492 1.127 1.11 0 .62-.508 1.128-1.127 1.128H3.813l8.047 8.032c.43.444.43 1.16 0 1.587a1.112 1.112 0 0 1-1.587 0L.32 16.532a1.12 1.12 0 0 1 0-1.57l9.953-9.953z"/></symbol><symbol id="temp-icon-right-arrow" viewBox="0 0 31.49 31.49"><path d="M21.205 5.007a1.117 1.117 0 0 0-1.587 1.57l8.047 8.048H1.11c-.618 0-1.11.493-1.11 1.112 0 .62.492 1.127 1.11 1.127h26.555l-8.047 8.032c-.43.444-.43 1.16 0 1.587.444.444 1.16.444 1.587 0l9.952-9.952a1.092 1.092 0 0 0 0-1.57l-9.952-9.95z"/></symbol></svg>