<svg xmlns="http://www.w3.org/2000/svg" width="216" height="258" viewBox="0 0 216 258">
  <metadata><?xpacket begin="﻿" id="W5M0MpCehiHzreSzNTczkc9d"?>
<x:xmpmeta xmlns:x="adobe:ns:meta/" x:xmptk="Adobe XMP Core 5.6-c140 79.160451, 2017/05/06-01:08:21        ">
   <rdf:RDF xmlns:rdf="http://www.w3.org/1999/02/22-rdf-syntax-ns#">
      <rdf:Description rdf:about=""/>
   </rdf:RDF>
</x:xmpmeta>
                                                                                                    
                                                                                                    
                                                                                                    
                                                                                                    
                                                                                                    
                                                                                                    
                                                                                                    
                                                                                                    
                                                                                                    
                                                                                                    
                                                                                                    
                                                                                                    
                                                                                                    
                                                                                                    
                                                                                                    
                                                                                                    
                                                                                                    
                                                                                                    
                                                                                                    
                                                                                                    
                           
<?xpacket end="w"?></metadata>
<defs>
    <style>
      .cls-1 {
        fill: #357ce7;
        fill-rule: evenodd;
      }
    </style>
  </defs>
  <path id="Forma_1_copy_5" data-name="Forma 1 copy 5" class="cls-1" d="M773.935,2251.55c-4.936,15.4-20.025,26.88-44.845,34.1a8.592,8.592,0,0,1-2.386.35,8.126,8.126,0,0,1-7.8-5.52,7.717,7.717,0,0,1,5.421-9.71c19.31-5.63,30.75-13.62,34-23.77a8.232,8.232,0,0,1,10.189-5.17A7.73,7.73,0,0,1,773.935,2251.55Zm73.269,19.21c-19.309-5.62-30.75-13.61-34-23.76a8.232,8.232,0,0,0-10.189-5.17,7.73,7.73,0,0,0-5.419,9.72c4.939,15.4,20.028,26.88,44.846,34.1a8.582,8.582,0,0,0,2.386.34,8.122,8.122,0,0,0,7.8-5.51A7.734,7.734,0,0,0,847.2,2270.76Zm-113.1-26.98a7.974,7.974,0,0,0-8.16-7.78c-17.434,0-31.617-13.53-31.617-30.16v-74.85a83.56,83.56,0,0,1,.53-9.39,7.878,7.878,0,0,0-7.24-8.57,8.063,8.063,0,0,0-8.987,6.9,98.634,98.634,0,0,0-.623,11.06v74.85c0,25.21,21.5,45.72,47.937,45.72A7.974,7.974,0,0,0,734.108,2243.78Zm51.9-215.79a111.352,111.352,0,0,0-40.015,7.37,7.66,7.66,0,0,0-4.528,10.12,8.291,8.291,0,0,0,10.615,4.32,94.5,94.5,0,0,1,33.928-6.24c50.548,0,91.673,39.22,91.673,87.43v74.85c0,16.63-14.186,30.16-31.618,30.16a7.789,7.789,0,1,0,0,15.56c26.434,0,47.939-20.51,47.939-45.72v-74.85C894,2074.2,845.552,2027.99,786.005,2027.99Zm68.606,122.41a88.146,88.146,0,0,0-6.072-33.27c-0.015-.04-0.033-0.07-0.048-0.11-0.06-.14-0.127-0.28-0.2-0.42-0.054-.1-0.109-0.21-0.169-0.32s-0.122-.21-0.185-0.31c-0.083-.13-0.168-0.26-0.259-0.39-0.022-.03-0.039-0.07-0.061-0.1s-0.076-.09-0.113-0.13a4.521,4.521,0,0,0-.325-0.4c-0.064-.08-0.131-0.15-0.2-0.22-0.111-.12-0.222-0.23-0.339-0.34-0.084-.08-0.167-0.15-0.251-0.23q-0.162-.135-0.33-0.27c-0.1-.07-0.2-0.15-0.306-0.22s-0.213-.15-0.323-0.21c-0.113-.08-0.227-0.14-0.344-0.21s-0.219-.12-0.332-0.18-0.236-.11-0.356-0.17-0.243-.11-0.366-0.15-0.228-.09-0.342-0.13c-0.138-.05-0.277-0.09-0.417-0.13-0.1-.03-0.207-0.06-0.31-0.08-0.156-.04-0.311-0.07-0.469-0.11-0.094-.01-0.188-0.03-0.283-0.04a4.219,4.219,0,0,0-.5-0.06,2.524,2.524,0,0,0-.274-0.02c-0.168-.01-0.337-0.02-0.506-0.02a2.849,2.849,0,0,0-.293.01c-0.159,0-.318.01-0.478,0.02-0.114.01-.228,0.03-0.342,0.04-0.141.02-.281,0.04-0.421,0.07s-0.27.05-.4,0.08-0.24.06-.359,0.1c-0.149.04-.3,0.08-0.445,0.13-0.069.03-.138,0.04-0.207,0.07a0.644,0.644,0,0,1-.124.05c-0.136.06-.27,0.11-0.4,0.17s-0.252.12-.372,0.18c-0.1.05-.2,0.11-0.3,0.16-0.149.09-.294,0.17-0.434,0.26-0.029.02-.062,0.04-0.092,0.06-11.921,7.93-30.169,12.5-50.07,12.54a7.793,7.793,0,1,0,.017,15.57h0.015c18.566-.04,36.153-3.65,49.917-10.08a79.322,79.322,0,0,1,2.153,18.81,64.386,64.386,0,0,1-32.9,56.36c-7.9,4.4-13.881,6.36-19.381,6.38-5.5-.02-11.477-1.98-19.379-6.38a64.4,64.4,0,0,1-32.907-56.36,79.268,79.268,0,0,1,2.15-18.79c1.5,0.7,3.05,1.38,4.643,2.02l0.819,0.32c3.785,1.52,6.842,2.75,9.873,2.75a10.716,10.716,0,0,0,4.1-.82c4.466-1.81,5.993-5.61,7.763-10,0.375-.93.8-1.99,1.309-3.19,2.159-5.1,4.533-11.39,5.407-14.32a7.749,7.749,0,0,0-5.617-9.62,8.231,8.231,0,0,0-10.081,5.36c-0.637,2.14-2.735,7.77-4.843,12.75-0.451,1.07-.845,2.03-1.195,2.9-0.132-.05-0.262-0.1-0.393-0.16l-0.836-.33a60.471,60.471,0,0,1-11.066-5.71l-0.094-.06c-0.14-.09-0.285-0.17-0.43-0.26-0.1-.05-0.2-0.11-0.3-0.16-0.121-.06-0.245-0.12-0.371-0.17-0.133-.07-0.268-0.12-0.4-0.18a0.66,0.66,0,0,1-.126-0.05c-0.067-.03-0.137-0.04-0.205-0.07-0.148-.05-0.3-0.09-0.446-0.13-0.119-.04-0.237-0.07-0.356-0.1-0.136-.03-0.271-0.06-0.409-0.08s-0.279-.05-0.419-0.07c-0.114-.01-0.227-0.03-0.342-0.04-0.162-.01-0.322-0.02-0.482-0.02a2.724,2.724,0,0,0-.286-0.01c-0.172,0-.345.01-0.518,0.02a2.258,2.258,0,0,0-.259.02,4.548,4.548,0,0,0-.52.06c-0.088.01-.174,0.03-0.262,0.04-0.164.04-.329,0.07-0.49,0.11a2.874,2.874,0,0,0-.285.08c-0.151.04-.3,0.09-0.448,0.14-0.1.03-.205,0.07-0.308,0.11-0.136.05-.268,0.11-0.4,0.17-0.109.05-.217,0.1-0.324,0.16-0.123.06-.244,0.12-0.364,0.19s-0.211.12-.314,0.19c-0.12.07-.236,0.15-0.352,0.23l-0.28.21c-0.12.09-.238,0.19-0.352,0.29-0.078.06-.155,0.13-0.232,0.2-0.122.12-.239,0.24-0.354,0.36-0.063.07-.125,0.13-0.187,0.2-0.116.13-.226,0.27-0.334,0.41a1.334,1.334,0,0,1-.109.13,1.062,1.062,0,0,0-.059.1c-0.092.13-.18,0.26-0.265,0.4-0.061.1-.123,0.2-0.178,0.3s-0.119.22-.177,0.34-0.13.26-.188,0.4c-0.016.04-.036,0.07-0.052,0.11a88.184,88.184,0,0,0-6.074,33.27,79.887,79.887,0,0,0,41.009,69.81c10.535,5.86,19.044,8.48,27.587,8.49h0.027c8.543-.01,17.051-2.63,27.586-8.49A79.891,79.891,0,0,0,854.611,2150.4Z" transform="translate(-678 -2028)"/>
</svg>
